<?xml version="1.0" encoding="utf-8"?>
<!-- Generator: Adobe Illustrator 24.1.2, SVG Export Plug-In . SVG Version: 6.00 Build 0)  -->
<svg version="1.1" id="Capa_1" xmlns="http://www.w3.org/2000/svg" xmlns:xlink="http://www.w3.org/1999/xlink" x="0px" y="0px"
	 viewBox="0 0 1000 1000" style="enable-background:new 0 0 1000 1000;" xml:space="preserve">
<style type="text/css">
	.st0{fill:#FFFFFF;}
</style>
<path d="M529.89,961.16c-19.1,0-38.21,0-57.31,0c-17.36-1.81-34.9-2.55-52.03-5.6c-93.11-16.57-175.07-54.27-236.36-129
	c-28.91-35.24-53.15-73.66-69.9-116.29c-17.99-45.77-29.2-93.47-31.54-142.44c-1.87-39.23-1.42-78.92,2.47-117.95
	c2.51-25.24,13.15-49.65,20.04-74.46c15.66-56.41,43.34-105.84,84.45-147.77c33.28-33.95,71.51-61.01,114.16-81.49
	c43.85-21.06,89.16-38,138.39-41.69c17.12-1.29,32.89-6.26,46.38-17.78c7.92-6.76,16.84-12.35,25.4-18.34
	c12.82-8.97,25.4-18.36,38.68-26.6c13.58-8.42,24.11-4.07,27.37,11.35c2.72,12.85,4.2,26.03,5.32,39.14
	c0.75,8.77,3.96,14.37,12.79,16.63c13.05,3.35,25.94,7.36,39,10.67c85.28,21.62,150.69,72.33,204.22,140.09
	c28.59,36.18,47.75,77.72,65.65,119.86c15.64,36.81,25.55,74.93,26.93,115.11c0.45,13.14,1.73,26.24,2.62,39.36
	c0,8.01,0,16.03,0,24.04c-0.47,2.69-1,5.36-1.4,8.06c-2.67,17.87-3.67,36.18-8.23,53.56c-28.21,107.5-82.2,198.14-172.4,266
	c-50.14,37.72-107.71,55.05-167.34,67.91C568.45,957.57,549.02,958.69,529.89,961.16z M723.11,373.06c0.26-1.11,0.51-2.21,0.77-3.32
	c-5.41-1.45-10.78-3.15-16.26-4.28c-6.15-1.27-9.48-3.78-9.74-10.94c-0.56-15.03-0.22-30.54-3.93-44.89
	c-5.47-21.14-1.17-39.68,7.37-58.68c8.4-18.7,15.54-37.99,22.93-57.13c3.79-9.81,1.61-13.18-8.87-13.35
	c-18.75-0.31-37.52-0.45-56.26,0.07c-10.62,0.29-20.11-1.55-28.22-8.67c-13.4-11.78-26.4-24.04-40.3-35.2
	c-9.72-7.81-13.82-17.13-14.35-29.35c-0.7-16.25-2.41-32.47-4.2-48.65c-1.32-11.95-5.59-13.93-15.57-7.37
	c-18.98,12.48-38.03,24.9-56.52,38.08c-16.22,11.56-33.05,21.28-53.1,23.99c-10.04,1.36-20.2,1.82-30.19,3.41
	c-34.57,5.5-66.29,19.33-97.97,33.54c-74.39,33.38-134.36,81.78-173.89,155.13c-31,57.53-51.13,117.8-54.05,182.61
	c-1.75,38.82,2.2,78.06,5.71,116.92c4.82,53.33,23.93,102.43,49.25,149.2c21.97,40.57,48.86,77.29,84.64,107.03
	c47.38,39.39,103.09,62.32,160.56,81.81c2.83,0.96,5.99,0.95,9,1.4c0.28-0.82,0.55-1.64,0.83-2.45c-3.03-1.68-5.93-3.67-9.11-5
	c-20.15-8.43-38-20.24-51.75-37.27c-9.8-12.15-18.7-25.08-27.31-38.12c-4.34-6.58-7.52-9.96-14.57-2.96
	c-3.9,3.87-9.45,6.09-14.25,9.06c-0.83-0.72-1.67-1.43-2.5-2.15c1.41-2.96,2.28-6.37,4.34-8.77c3.38-3.95,7.81-6.99,11.24-10.9
	c1.81-2.07,4.02-6.88,3.35-7.49c-2.46-2.24-6.06-4.47-9.21-4.44c-5.44,0.05-10.83,2.36-16.3,2.63c-3.58,0.18-7.25-1.55-10.88-2.42
	c-0.01-1.52-0.02-3.03-0.02-4.55c7.74-1.75,15.44-3.77,23.25-5.17c6.01-1.08,10.84-2.2,9.16-10.27
	c-7.52-36.17-5.54-72.07,3.51-107.72c4.21-16.56,4.97-32.84,1.45-50c-4.66-22.78-7.2-46.05-9.52-69.23
	c-1.32-13.19,5.26-18.27,18.22-15.14c19.95,4.82,39.73,10.3,59.55,15.62c30.1,8.08,59.99-11.05,65.44-41.56
	c3.5-19.59,7.54-39.08,11.66-58.56c2.79-13.2,6.49-15.02,18.15-8.58c18,9.93,35.89,20.09,53.54,30.62
	c13.89,8.28,28.9,12.67,44.01,6.91c36.36-13.86,69.29-33.85,93.6-64.82c12.22-15.56,21.1-33.76,31.43-50.79
	c5.65-9.31,6.67-9.53,15.63-3.75c4.14,2.67,8.5,5,12.75,7.48c0.5-0.73,1-1.46,1.51-2.19c-2.37-2.1-4.83-4.12-7.1-6.32
	c-4.6-4.46-9.65-8.62-13.51-13.66c-4.3-5.62-2.36-9.07,4.73-9.33C708.52,372.85,715.82,373.06,723.11,373.06z M409.91,760.56
	c-1.66-4.63-4.26-12.42-7.34-20c-0.57-1.4-3.09-2-4.71-2.98c-0.88,1.79-2.74,3.76-2.46,5.34c0.7,3.87,2.32,7.59,3.69,11.33
	c4.4,11.99,2.2,21.05-6.36,25.93c-8.38,4.77-17.68,1.69-25.29-8.56c-3.11-4.19-5.7-8.78-9.07-12.74c-1.2-1.41-3.98-1.47-6.04-2.15
	c0.08,1.93-0.59,4.45,0.38,5.68c5.85,7.43,11.42,15.28,18.35,21.59c7.26,6.61,16.7,7.94,25.81,3.63
	C406.58,783.04,409.87,774.31,409.91,760.56z M498.89,694.21c0.71,17.1,21.35,35.6,34.72,33.92c2.1-0.26,4.26-0.88,6.14-1.83
	c8.15-4.11,14.14-10.12,14.44-19.79c0.36-11.58-2.3-22.15-12.28-29.72c0.25,5.47,1.6,10.58,3.01,15.67
	c2.67,9.66-1.08,22.06-8.57,26.18c-9.67,5.32-15.46-1.77-21.35-7.61C510.06,706.15,505.37,701.01,498.89,694.21z M499.6,761.8
	c-1.59,1.77-2.81,2.75-3.53,4.01c-8.34,14.6-8.32,14.62-23.83,8.26c-0.57-0.23-1.09-0.57-1.65-0.82c-6.24-2.75-9.8-2.2-11.75,5.82
	c-1.19,4.88-5.76,9.68-10.07,12.77c-2.58,1.85-7.57,0.34-11.88,0.34c0.43,1.93,0.34,3.03,0.85,3.6c5.42,6.08,14,7.14,19.3,0.27
	c7.62-9.87,15.45-15.67,28.62-12.79c3.43,0.75,8.57-1.95,11.57-4.59C502.05,774.43,505.35,768.87,499.6,761.8z M635.09,737.42
	c0.24,1.33,0.49,2.66,0.73,4c8.98-1.54,17.95-3.08,26.93-4.62c-0.25-1.44-0.49-2.89-0.74-4.33
	C653.04,734.11,644.06,735.76,635.09,737.42z M619.7,720.3c0.8,0.9,1.59,1.8,2.39,2.7c7.56-6.86,15.13-13.72,22.69-20.59
	c-0.76-0.82-1.51-1.65-2.27-2.47C634.91,706.73,627.31,713.52,619.7,720.3z"/>
<path class="st0" d="M723.11,373.06c-7.29,0-14.58-0.21-21.86,0.06c-7.09,0.26-9.04,3.71-4.73,9.33c3.86,5.05,8.91,9.2,13.51,13.66
	c2.27,2.2,4.73,4.22,7.1,6.32c-0.5,0.73-1,1.46-1.51,2.19c-4.26-2.48-8.62-4.81-12.75-7.48c-8.95-5.78-9.98-5.55-15.63,3.75
	c-10.34,17.03-19.22,35.23-31.43,50.79c-24.31,30.97-57.24,50.96-93.6,64.82c-15.1,5.76-30.12,1.37-44.01-6.91
	c-17.66-10.53-35.54-20.69-53.54-30.62c-11.66-6.44-15.37-4.62-18.15,8.58c-4.11,19.47-8.16,38.97-11.66,58.56
	c-5.45,30.51-35.34,49.65-65.44,41.56c-19.82-5.32-39.61-10.8-59.55-15.62c-12.97-3.13-19.54,1.95-18.22,15.14
	c2.31,23.18,4.85,46.45,9.52,69.23c3.51,17.16,2.75,33.44-1.45,50c-9.06,35.65-11.04,71.55-3.51,107.72
	c1.68,8.07-3.15,9.19-9.16,10.27c-7.81,1.4-15.5,3.42-23.25,5.17c0.01,1.52,0.02,3.03,0.02,4.55c3.63,0.87,7.31,2.6,10.88,2.42
	c5.47-0.28,10.86-2.58,16.3-2.63c3.15-0.03,6.75,2.2,9.21,4.44c0.67,0.61-1.54,5.42-3.35,7.49c-3.43,3.91-7.86,6.96-11.24,10.9
	c-2.06,2.4-2.93,5.81-4.34,8.77c0.83,0.72,1.67,1.43,2.5,2.15c4.8-2.97,10.34-5.19,14.25-9.06c7.05-7,10.23-3.62,14.57,2.96
	c8.61,13.04,17.51,25.97,27.31,38.12c13.74,17.03,31.6,28.84,51.75,37.27c3.18,1.33,6.08,3.32,9.11,5
	c-0.28,0.82-0.55,1.64-0.83,2.45c-3.01-0.44-6.17-0.44-9-1.4c-57.47-19.49-113.18-42.41-160.56-81.81
	c-35.77-29.74-62.67-66.45-84.64-107.03c-25.32-46.77-44.43-95.87-49.25-149.2c-3.52-38.86-7.46-78.1-5.71-116.92
	c2.92-64.81,23.05-125.09,54.05-182.61c39.53-73.35,99.49-121.75,173.89-155.13c31.67-14.21,63.39-28.04,97.97-33.54
	c9.99-1.59,20.16-2.06,30.19-3.41c20.05-2.71,36.88-12.43,53.1-23.99c18.5-13.18,37.54-25.6,56.52-38.08
	c9.98-6.56,14.25-4.58,15.57,7.37c1.79,16.18,3.5,32.4,4.2,48.65c0.52,12.22,4.62,21.54,14.35,29.35
	c13.9,11.16,26.9,23.42,40.3,35.2c8.1,7.12,17.6,8.97,28.22,8.67c18.74-0.52,37.51-0.38,56.26-0.07
	c10.49,0.17,12.67,3.53,8.87,13.35c-7.4,19.14-14.53,38.42-22.93,57.13c-8.53,19-12.83,37.54-7.37,58.68
	c3.71,14.36,3.37,29.87,3.93,44.89c0.27,7.16,3.6,9.68,9.74,10.94c5.48,1.13,10.84,2.83,16.26,4.28
	C723.62,370.85,723.36,371.95,723.11,373.06z M627.03,354.19c12.27-0.31,30.06-15.12,31.85-27c0.34-2.28-1.38-4.88-2.15-7.33
	c-2.39,0.87-5.51,1.09-7,2.76c-3.02,3.38-4.88,7.75-7.69,11.34c-7.56,9.64-18.68,10.54-23.34,1.16c-2.28-4.58-1.38-11.13-0.73-16.64
	c0.56-4.75,3.42-9.22,4.07-13.98c0.32-2.33-2.09-5.04-3.27-7.57c-2.32,1.34-5.92,2.14-6.73,4.1c-3.47,8.44-7.01,17.03-8.85,25.91
	C600.65,339.09,614.77,354.5,627.03,354.19z M482.81,218.28c-14.46,4.5-15.61,15.04-17.57,24.45c-3.01,14.49,2.38,26.25,13.76,32.14
	c10.59,5.48,23.32,1.61,36.79-11.84c4.57-4.56,11.27-8.96,6.24-18.86c-7.44,5.9-13.93,11.35-20.74,16.38
	c-10.12,7.48-23.38,2.14-24.76-10.27c-0.48-4.33,1.4-8.94,2.3-13.4C479.95,231.39,481.17,225.92,482.81,218.28z M561.93,351.76
	c4.97-2.96,8.68-4.86,11.97-7.31c1.12-0.83,1.22-3.06,1.78-4.64c-1.83-0.59-3.85-2-5.45-1.62c-11.35,2.62-11.32,2.74-13.44-8.96
	c-1.93-10.66-3.6-12.21-13.97-9.65c-8.42,2.07-14.28,1.15-17-8.2c-0.44-1.53-3.53-3.11-5.4-3.1c-1.14,0-3.07,2.91-3.26,4.66
	c-1.24,11.51,5.32,19.29,16.57,16.92c11.74-2.47,15.84,3.57,20.12,11.94C555.6,345.22,558.74,347.92,561.93,351.76z M427.68,264.63
	c1.01-0.64,2.01-1.27,3.02-1.91c0.36-1.08,1.37-2.64,0.99-3.17c-6.08-8.2-12.3-16.32-18.69-24.28c-0.41-0.51-3.03-0.09-3.73,0.7
	c-0.79,0.89-1.28,3.2-0.69,3.99C414.81,248.29,421.28,256.43,427.68,264.63z M386.03,270.12c5.09,5.25,21.48,9.47,26.72,6.32
	c1.07-0.64,1.44-5.04,0.43-6.09C408.68,265.64,392.71,265.81,386.03,270.12z"/>
<path class="st0" d="M409.91,760.56c-0.05,13.76-3.33,22.49-13.03,27.08c-9.12,4.32-18.55,2.99-25.81-3.63
	c-6.93-6.31-12.5-14.16-18.35-21.59c-0.97-1.23-0.29-3.76-0.38-5.68c2.06,0.68,4.84,0.74,6.04,2.15c3.36,3.95,5.96,8.55,9.07,12.74
	c7.61,10.25,16.9,13.33,25.29,8.56c8.56-4.88,10.76-13.93,6.36-25.93c-1.37-3.74-2.99-7.45-3.69-11.33
	c-0.29-1.58,1.57-3.55,2.46-5.34c1.62,0.97,4.14,1.58,4.71,2.98C405.66,748.14,408.26,755.93,409.91,760.56z"/>
<path class="st0" d="M498.89,694.21c6.48,6.8,11.17,11.94,16.1,16.83c5.89,5.84,11.68,12.92,21.35,7.61
	c7.5-4.12,11.25-16.52,8.57-26.18c-1.41-5.1-2.75-10.21-3.01-15.67c9.99,7.57,12.64,18.15,12.28,29.72
	c-0.3,9.67-6.29,15.68-14.44,19.79c-1.88,0.95-4.04,1.57-6.14,1.83C520.24,729.8,499.6,711.31,498.89,694.21z"/>
<path class="st0" d="M499.6,761.8c5.76,7.07,2.45,12.63-2.37,16.87c-3.01,2.64-8.14,5.34-11.57,4.59
	c-13.18-2.88-21.01,2.92-28.62,12.79c-5.31,6.87-13.88,5.81-19.3-0.27c-0.51-0.57-0.42-1.67-0.85-3.6c4.31,0,9.3,1.51,11.88-0.34
	c4.31-3.09,8.88-7.89,10.07-12.77c1.95-8.02,5.51-8.57,11.75-5.82c0.56,0.25,1.09,0.59,1.65,0.82c15.51,6.35,15.49,6.34,23.83-8.26
	C496.79,764.55,498.01,763.58,499.6,761.8z"/>
<path class="st0" d="M635.09,737.42c8.98-1.65,17.95-3.3,26.93-4.96c0.25,1.44,0.49,2.89,0.74,4.33
	c-8.98,1.54-17.95,3.08-26.93,4.62C635.57,740.08,635.33,738.75,635.09,737.42z"/>
<path class="st0" d="M619.7,720.3c7.6-6.79,15.21-13.57,22.82-20.36c0.76,0.82,1.51,1.65,2.27,2.47
	c-7.56,6.86-15.13,13.72-22.69,20.59C621.3,722.11,620.5,721.21,619.7,720.3z"/>
<path d="M627.03,354.19c-12.26,0.31-26.38-15.1-23.86-27.26c1.84-8.88,5.38-17.47,8.85-25.91c0.81-1.96,4.41-2.76,6.73-4.1
	c1.18,2.54,3.58,5.24,3.27,7.57c-0.64,4.76-3.5,9.23-4.07,13.98c-0.65,5.52-1.55,12.07,0.73,16.64c4.67,9.38,15.79,8.48,23.34-1.16
	c2.81-3.59,4.68-7.97,7.69-11.34c1.49-1.67,4.62-1.88,7-2.76c0.77,2.45,2.5,5.05,2.15,7.33
	C657.08,339.07,639.29,353.88,627.03,354.19z"/>
<path d="M482.81,218.28c-1.64,7.64-2.86,13.11-3.97,18.6c-0.9,4.46-2.78,9.07-2.3,13.4c1.38,12.41,14.64,17.75,24.76,10.27
	c6.81-5.03,13.3-10.48,20.74-16.38c5.03,9.9-1.67,14.3-6.24,18.86c-13.47,13.44-26.2,17.32-36.79,11.84
	c-11.38-5.89-16.77-17.65-13.76-32.14C467.2,233.32,468.36,222.78,482.81,218.28z"/>
<path d="M561.93,351.76c-3.19-3.85-6.33-6.54-8.07-9.96c-4.28-8.38-8.38-14.42-20.12-11.94c-11.25,2.37-17.81-5.42-16.57-16.92
	c0.19-1.75,2.12-4.66,3.26-4.66c1.86-0.01,4.95,1.57,5.4,3.1c2.72,9.35,8.57,10.27,17,8.2c10.38-2.56,12.04-1.01,13.97,9.65
	c2.12,11.69,2.09,11.58,13.44,8.96c1.61-0.37,3.63,1.04,5.45,1.62c-0.56,1.59-0.66,3.81-1.78,4.64
	C570.6,346.9,566.9,348.8,561.93,351.76z"/>
<path d="M427.68,264.63c-6.4-8.19-12.88-16.34-19.11-24.67c-0.59-0.79-0.1-3.1,0.69-3.99c0.7-0.79,3.32-1.21,3.73-0.7
	c6.39,7.96,12.61,16.07,18.69,24.28c0.39,0.52-0.63,2.09-0.99,3.17C429.7,263.36,428.69,263.99,427.68,264.63z"/>
<path d="M386.03,270.12c6.68-4.31,22.64-4.48,27.15,0.24c1,1.05,0.63,5.45-0.43,6.09C407.51,279.59,391.12,275.37,386.03,270.12z"/>
</svg>
