<?xml version="1.0" encoding="utf-8"?>
<!-- Generator: Adobe Illustrator 24.1.2, SVG Export Plug-In . SVG Version: 6.00 Build 0)  -->
<svg version="1.1" id="Capa_1" xmlns="http://www.w3.org/2000/svg" xmlns:xlink="http://www.w3.org/1999/xlink" x="0px" y="0px"
	 viewBox="0 0 1000 1000" style="enable-background:new 0 0 1000 1000;" xml:space="preserve">
<style type="text/css">
	.st0{fill:#FFFFFF;}
	.st1{fill:url(#SVGID_1_);}
	.st2{fill:url(#SVGID_2_);}
	.st3{fill:url(#SVGID_3_);}
	.st4{fill:#6649EF;}
	.st5{fill:#8C5FF7;}
	.st6{fill:#86C1E9;}
	.st7{fill:url(#SVGID_4_);}
	.st8{fill:#01FFF6;}
</style>
<g>
	<g>
		<path class="st0" d="M645.32,309.56c-4.7,1.85-9.19,4.16-13.76,6.29c-66.78,31.23-133.55,62.49-200.32,93.74
			c-30.8,14.41-61.6,28.83-92.4,43.24c-19.33,9.05-38.67,18.1-58,27.16c-0.67,0.31-1.51,0.46-2.06,1.51
			c3.73,0.3,7.18,0.55,10.62,0.85c10.47,0.92,20.93,1.88,31.4,2.78c10.55,0.91,21.11,1.75,31.66,2.66
			c14.26,1.24,28.52,2.53,42.77,3.78c13.35,1.17,26.71,2.31,40.06,3.47c11.54,1,23.08,1.99,34.62,2.99
			c13.44,1.16,26.88,2.29,40.31,3.52c1.82,0.17,2.82-0.41,3.83-1.88c10.2-14.79,20.47-29.52,30.72-44.27
			c30.99-44.59,61.98-89.18,92.95-133.79c2.68-3.87,5.57-7.6,7.93-11.69c0.19-0.1,0.39-0.25,0.2-0.46
			C645.69,309.27,645.48,309.42,645.32,309.56z M610.57,719.43c0.15,0.2,0.31,0.39,0.52,0.08c0.02-0.03-0.17-0.2-0.27-0.31
			c-0.06-1.03-0.66-1.86-1.08-2.75c-12.62-26.44-25.26-52.87-37.89-79.3c-8.57-17.92-17.12-35.85-25.69-53.76
			c-11.74-24.57-23.51-49.12-35.21-73.71c-0.7-1.47-1.52-2.02-3.16-2.13c-9.66-0.62-19.32-1.36-28.98-2.1
			c-11.97-0.91-23.93-1.87-35.9-2.77c-9.9-0.75-19.82-1.42-29.72-2.17c-14.11-1.07-28.22-2.19-42.34-3.27
			c-13.04-1-26.08-1.97-39.12-2.96c-17.66-1.33-35.33-2.67-52.99-4c-0.67-0.05-1.38-0.21-2.34,0.14c0.93,0.68,1.58,1.18,2.25,1.64
			c23.82,16.35,47.64,32.7,71.47,49.04c46.63,31.98,93.27,63.95,139.91,95.93c37.14,25.47,74.28,50.96,111.44,76.41
			C604.46,715.49,607.32,717.77,610.57,719.43z M87.77,672.52l0.08,0.07c0,0-0.03-0.12-0.03-0.12c0.19,0.43,0.39,0.85,0.58,1.28
			c0.1,1.9,1.1,3.5,1.77,5.21c0.07,0.23,0.12,0.47,0.22,0.69c6.3,15.23,13.32,30.11,21.2,44.59c32.37,59.46,75.6,109.5,130.1,149.71
			c38.12,28.12,79.66,49.78,124.51,65.05c31.99,10.9,64.78,18.19,98.39,21.87c14.5,1.59,29.03,2.51,43.6,2.72
			c15.99,0.23,31.94-0.66,47.85-2.21c12.53-1.22,24.98-2.94,37.35-5.21c31.93-5.84,62.95-14.83,92.92-27.32
			c69.77-29.06,129.24-72.19,177.56-130.45c35.08-42.29,61.64-89.44,79.84-141.28c11.89-33.87,19.71-68.65,23.41-104.37
			c1.23-11.86,2.08-23.75,2.36-35.67c0.52-21.8-0.66-43.52-3.36-65.16c-1.96-15.69-4.66-31.25-8.22-46.66
			c-9.85-42.6-25.36-83.03-46.74-121.18c-31.49-56.18-72.76-103.84-124.4-142.43c-41.75-31.2-87.48-54.68-137.18-70.42
			c-18.87-5.98-38.05-10.72-57.54-14.21c-14.67-2.63-29.43-4.55-44.29-5.71c-11.07-0.86-22.14-1.43-33.24-1.44
			c-0.62,0-1.24,0-1.86,0c-0.04,0.17-0.07,0.34-0.11,0.5c2.91,1.65,5.82,3.3,8.73,4.95c2.96,1.67,5.92,3.33,8.88,4.99
			c2.89,1.62,5.77,3.24,8.66,4.86c2.96,1.66,5.92,3.32,8.87,4.99c2.96,1.66,5.91,3.33,8.87,5c2.96,1.66,5.92,3.32,8.88,4.98
			c2.89,1.62,5.78,3.24,8.66,4.86c2.96,1.66,5.93,3.3,8.87,4.99c2.87,1.66,5.87,3.12,8.95,5.21
			c-24.28,12.24-48.11,24.25-71.96,36.28c0.41,0.65,0.86,0.5,1.22,0.56c4.83,0.86,9.73,0.37,14.6,0.72
			c6.33,0.45,12.66,0.94,18.98,1.54c6.99,0.65,13.94,1.6,20.84,2.76c15.97,2.68,31.73,6.3,47.24,11.01
			c22.2,6.75,43.61,15.41,64.19,26.14c11.89,6.2,23.38,13.04,34.56,20.45c18.11,11.99,34.94,25.58,50.66,40.54
			c8.99,8.56,17.57,17.52,25.7,26.91c10.62,12.27,20.44,25.15,29.35,38.7c9.23,14.04,17.52,28.61,24.8,43.78
			c6.27,13.06,11.78,26.42,16.57,40.07c8.88,25.3,14.61,51.34,17.78,77.95c1.64,13.73,2.44,27.53,2.49,41.36
			c0.02,6.29-0.01,12.58-0.26,18.87c-0.36,9.35-1.02,18.66-2.03,27.96c-1.43,13.25-3.62,26.37-6.5,39.38
			c-8.81,39.86-23.78,77.25-44.9,112.17c-23.39,38.67-52.94,71.94-88.24,100.09c-39.94,31.85-84.63,54.42-133.91,67.89
			c-15.89,4.35-32.01,7.59-48.35,9.78c-4.62,0.09-9.17,0.9-13.75,1.33c-7.97,0.74-15.96,1.41-23.96,1.48
			c-6.36,0.05-12.71,0.38-19.08,0.17c-8.42-0.28-16.84-0.45-25.25-1.06c-12.77-0.93-25.45-2.58-38.04-4.86
			c-20.43-3.7-40.41-9.12-59.94-16.18c-17.74-6.41-34.91-14.11-51.47-23.14c-17.22-9.39-33.62-20.08-49.15-32.08
			c-11.97-9.25-23.4-19.14-34.09-29.85c-4.27-4.27-8.57-8.52-12.67-12.95c-4.54-4.9-8.88-10-13.28-15.03
			c-0.3-0.35-0.98-0.73-0.4-1.4c0.82-0.18,1.17,0.49,1.62,0.93c3.41,3.38,7.07,6.47,10.71,9.57c5.65,4.81,11.38,9.52,17.28,14.04
			c5.05,3.86,10.13,7.68,15.3,11.37c7.46,5.31,15.08,10.4,22.88,15.22c7.65,4.73,15.36,9.36,23.22,13.71
			c11.83,6.55,23.83,12.74,36.33,17.94c5.17,2.15,10.34,4.28,15.77,5.7c2.17,0.57,4.36,1.3,7.27,0.81c-2.5-0.73-4.49-1.2-6.4-1.89
			c-8.3-3.02-16.15-7.04-23.99-11.04c-5.06-2.58-9.99-5.42-14.9-8.27c-5.77-3.35-11.41-6.92-16.98-10.59
			c-9.57-6.31-19.08-12.69-28.26-19.58c-5.67-4.25-11.28-8.58-16.64-13.18c-7.44-6.38-14.98-12.67-21.87-19.69
			c-3.11-3.17-6.43-6.15-9.55-9.32c-8.4-8.55-16.34-17.49-23.85-26.83c-6.68-8.31-12.96-16.9-18.76-25.82
			c-9.2-14.13-17.27-28.9-24.18-44.3c-5.79-12.87-10.8-26.03-14.93-39.52c-1.9-6.22-3.48-12.52-5.1-18.82
			c-2.1-8.13-3.52-16.4-4.97-24.67c-0.36-2.03-0.85-4.04-1.02-6.09c-0.38-4.42-1.24-8.77-1.66-13.19c-0.4-4.25-0.9-8.51-1.12-12.76
			c-0.24-4.6-0.44-9.22-0.65-13.82c-0.23-5,0.07-10-0.37-15c-0.2-2.22,0.31-4.43,0.35-6.67c0.08-4.87-0.02-9.74,0.43-14.6
			c0.36-3.94,0.22-7.93,0.75-11.84c1.02-7.41,1.46-14.89,2.66-22.29c1.26-7.79,2.59-15.55,4.27-23.26c1.78-8.19,3.7-16.34,6.1-24.38
			c1.41-4.73,2.9-9.43,4.45-14.12c3.37-10.18,7.27-20.13,11.68-29.92c3.32-7.37,6.6-14.75,10.37-21.9
			c2.58-4.89,5.22-9.75,7.93-14.57c6.36-11.31,13.63-22.03,21.14-32.59c6.21-8.74,13.04-17,20.11-25.05
			c4.73-5.39,9.55-10.71,14.61-15.79c7.45-7.48,15.09-14.78,23.06-21.72c7.04-6.13,14.25-12.04,21.72-17.63
			c9.65-7.22,19.54-14.1,30.01-20.12c7.22-4.16,14.33-8.51,21.79-12.25c12.61-6.33,25.32-12.41,38.58-17.31
			c6.42-2.37,12.84-4.73,19.35-6.83c9.58-3.08,19.26-5.84,29.08-8.08c7.49-1.71,14.96-3.45,22.56-4.59
			c7.75-1.16,15.47-2.51,23.28-3.24c1.53-0.14,2.86-0.59,4.16-1.39c21.41-13.17,42.84-26.32,64.26-39.48
			c0.99-0.61,1.96-1.27,3.03-1.97c-1.44-1.01-2.81-1.43-4.33-1.28c-2.26-1.02-4.54-2.01-6.78-3.06
			c-22.69-10.63-45.38-21.27-68.06-31.92c-1.28-0.6-2.5-0.99-4.02-0.81c-12.66,1.48-25.22,3.51-37.72,6.02
			c-32.96,6.62-64.84,16.7-95.53,30.41c-65.5,29.25-121.6,71.05-167.17,126.57C106.53,282.1,73.18,357.83,60.6,442.7
			c-2.86,19.27-4.33,38.66-4.72,58.13c-0.25,12.59,0.35,25.16,1.23,37.72c1.02,14.46,2.77,28.83,5.2,43.11
			c4.21,24.76,10.35,49.04,18.59,72.77C83.02,660.53,84.99,666.68,87.77,672.52z M617.77,717.86c0.16-0.01,0.31-0.02,0.47-0.04
			c0.16-1.64,0.33-3.29,0.47-4.93c0.56-6.68,1.1-13.36,1.66-20.04c0.76-9.07,1.55-18.14,2.32-27.21c0.56-6.68,1.1-13.36,1.66-20.04
			c0.76-9.07,1.55-18.14,2.31-27.21c0.56-6.68,1.1-13.36,1.66-20.04c0.76-8.99,1.54-17.97,2.3-26.96
			c0.56-6.68,1.09-13.36,1.65-20.04c0.79-9.4,1.59-18.8,2.38-28.2c0.7-8.33,1.39-16.66,2.09-24.99c0.78-9.23,1.58-18.47,2.36-27.7
			c0.55-6.51,1.07-13.03,1.63-19.54c0.92-10.8,1.87-21.6,2.78-32.4c0.74-8.82,1.43-17.65,2.17-26.47
			c1.07-12.61,2.18-25.23,3.26-37.84c1-11.71,1.98-23.42,2.96-35.13c0.14-1.68,0.21-3.36,0.32-5.27c-1.02,0.61-1.35,1.39-1.81,2.03
			c-3.09,4.4-6.16,8.82-9.23,13.24c-25.62,36.83-51.23,73.66-76.85,110.49c-15.08,21.68-30.14,43.36-45.27,65
			c-0.98,1.4-1.06,2.45-0.32,4c16.75,35.28,33.43,70.59,50.13,105.89c14.11,29.84,28.23,59.69,42.34,89.53
			C613.38,708.62,615.58,713.24,617.77,717.86z"/>
		<linearGradient id="SVGID_1_" gradientUnits="userSpaceOnUse" x1="192.0121" y1="706.3317" x2="970.6638" y2="293.9722">
			<stop  offset="0" style="stop-color:#80D2FB"/>
			<stop  offset="0.7095" style="stop-color:#8C5FF7"/>
		</linearGradient>
		<path class="st1" d="M564.76,880.1c16.33-2.19,32.45-5.43,48.35-9.78c49.28-13.48,93.97-36.05,133.91-67.89
			c35.3-28.15,64.85-61.42,88.24-100.09c21.12-34.92,36.09-72.32,44.9-112.17c2.88-13.01,5.07-26.13,6.5-39.38
			c1-9.3,1.67-18.61,2.03-27.96c0.24-6.29,0.28-12.58,0.26-18.87c-0.05-13.83-0.85-27.62-2.49-41.36
			c-3.17-26.61-8.91-52.65-17.78-77.95c-4.79-13.65-10.3-27.01-16.57-40.07c-7.28-15.16-15.56-29.74-24.8-43.78
			c-8.91-13.55-18.73-26.43-29.35-38.7c-8.13-9.39-16.71-18.35-25.7-26.91c-15.71-14.96-32.55-28.55-50.66-40.54
			c-11.18-7.4-22.68-14.25-34.56-20.45c-20.57-10.74-41.98-19.39-64.19-26.14c-15.51-4.71-31.27-8.33-47.24-11.01
			c-6.91-1.16-13.86-2.1-20.84-2.76c-6.32-0.59-12.65-1.09-18.98-1.54c-4.87-0.35-9.77,0.14-14.6-0.72
			c-0.37-0.06-0.81,0.09-1.22-0.56c23.86-12.03,47.69-24.04,71.96-36.28c-3.08-2.09-6.08-3.55-8.95-5.21
			c-2.94-1.7-5.91-3.33-8.87-4.99c-2.89-1.62-5.78-3.24-8.66-4.86c-2.96-1.66-5.92-3.32-8.88-4.98c-2.96-1.66-5.91-3.33-8.87-5
			c-2.96-1.66-5.92-3.33-8.87-4.99c-2.89-1.62-5.77-3.24-8.66-4.86c-2.96-1.66-5.92-3.32-8.88-4.99c-2.91-1.64-5.82-3.3-8.73-4.95
			c0.04-0.17,0.07-0.34,0.11-0.5c0.62,0,1.24,0,1.86,0c11.1,0.01,22.17,0.58,33.24,1.44c14.86,1.16,29.63,3.09,44.29,5.71
			c19.48,3.49,38.66,8.23,57.54,14.21c49.7,15.74,95.42,39.22,137.18,70.42c51.64,38.59,92.92,86.25,124.4,142.43
			c21.38,38.15,36.88,78.58,46.74,121.18c3.56,15.4,6.27,30.96,8.22,46.66c2.7,21.64,3.88,43.36,3.36,65.16
			c-0.28,11.92-1.13,23.8-2.36,35.67c-3.71,35.71-11.52,70.5-23.41,104.37c-18.2,51.84-44.77,98.99-79.84,141.28
			c-48.31,58.25-107.79,101.39-177.56,130.45c-29.97,12.48-60.99,21.47-92.92,27.32c-12.37,2.26-24.83,3.99-37.35,5.21
			c-15.92,1.55-31.86,2.44-47.85,2.21c-14.57-0.21-29.1-1.13-43.6-2.72c-33.61-3.68-66.4-10.97-98.39-21.87
			c-44.85-15.28-86.39-36.93-124.51-65.05c-54.5-40.21-97.73-90.25-130.1-149.71c-7.88-14.48-14.9-29.36-21.2-44.59
			c-0.09-0.22-0.15-0.46-0.22-0.69c0.25,0.02,0.51,0.03,0.76,0.05c0.73,1.07,1.53,2.1,2.17,3.22c9.16,16.13,19.36,31.58,30.57,46.36
			c15.09,19.9,31.82,38.3,50.19,55.2c11.52,10.59,23.61,20.5,36.25,29.72c16.4,11.97,33.57,22.71,51.52,32.19
			c15.52,8.19,31.5,15.39,47.93,21.56c22.58,8.48,45.69,15.03,69.39,19.5c11.37,2.14,22.82,3.8,34.33,5.04
			c10.28,1.11,20.59,1.86,30.91,2.14c12.98,0.35,25.97,0.23,38.95-0.68c8.82-0.62,17.62-1.41,26.4-2.5
			c13.46-1.67,26.8-4.03,40.03-7.04C554.65,882.57,559.7,881.31,564.76,880.1z"/>
		<linearGradient id="SVGID_2_" gradientUnits="userSpaceOnUse" x1="306.0595" y1="982.8181" x2="319.5427" y2="56.9754">
			<stop  offset="0" style="stop-color:#6649EF"/>
			<stop  offset="1" style="stop-color:#80D2FB"/>
		</linearGradient>
		<path class="st2" d="M564.76,880.1c-5.06,1.21-10.11,2.47-15.19,3.62c-13.23,3.01-26.57,5.37-40.03,7.04
			c-8.78,1.09-17.58,1.88-26.4,2.5c-12.98,0.91-25.96,1.03-38.95,0.68c-10.32-0.28-20.63-1.03-30.91-2.14
			c-11.51-1.24-22.95-2.9-34.33-5.04c-23.7-4.47-46.81-11.02-69.39-19.5c-16.44-6.17-32.41-13.37-47.93-21.56
			c-17.95-9.48-35.12-20.22-51.52-32.19c-12.64-9.23-24.73-19.13-36.25-29.72c-18.38-16.9-35.1-35.3-50.19-55.2
			c-11.21-14.79-21.41-30.23-30.57-46.36c-0.64-1.12-1.44-2.15-2.17-3.22c-0.45-1.94-1.67-3.52-2.53-5.26
			c-0.19-0.43-0.39-0.85-0.58-1.28c0,0-0.05,0.05-0.05,0.05c-2.78-5.84-4.75-11.99-6.86-18.08c-8.23-23.73-14.38-48.01-18.59-72.77
			c-2.43-14.28-4.18-28.65-5.2-43.11c-0.89-12.56-1.48-25.13-1.23-37.72c0.39-19.47,1.87-38.85,4.72-58.13
			c12.57-84.87,45.93-160.6,100.34-226.92c45.56-55.53,101.66-97.32,167.17-126.57c30.69-13.71,62.57-23.78,95.53-30.41
			c12.49-2.51,25.06-4.54,37.72-6.02c1.53-0.18,2.74,0.21,4.02,0.81c22.68,10.64,45.37,21.28,68.06,31.92
			c2.25,1.05,4.52,2.04,6.78,3.06c0.72,0.43,1.45,0.86,2.67,1.58c-1.29,0-2.01,0.06-2.72-0.01c-7.74-0.73-15.49-1.02-23.27-0.97
			c-14.04,0.09-28.09-0.28-42.08,1.48c-11.71,1.47-23.43,2.8-35.05,4.9c-14.32,2.58-28.45,5.96-42.38,10.13
			c-10.28,3.08-20.35,6.78-30.36,10.69c-14.65,5.72-28.93,12.2-42.77,19.63c-12.02,6.45-23.77,13.35-35.11,20.95
			c-7.77,5.21-15.27,10.77-22.76,16.35c-9.27,6.92-18.17,14.32-26.55,22.29c-6.4,6.09-12.75,12.25-18.86,18.66
			c-7.83,8.2-15.36,16.64-22.46,25.45c-6.68,8.29-13.09,16.81-19.02,25.66c-5.76,8.57-11.4,17.23-16.43,26.26
			c-3.33,5.99-6.67,11.98-9.67,18.14c-2.24,4.6-4.58,9.16-6.63,13.85c-3.4,7.79-6.73,15.61-9.66,23.61
			c-2.78,7.59-5.52,15.2-7.87,22.93c-1.85,6.08-3.51,12.2-5.06,18.37c-2.06,8.25-3.89,16.54-5.42,24.9
			c-1.47,8.03-2.63,16.1-3.57,24.22c-0.92,7.86-1.6,15.72-1.98,23.63c-0.19,3.88-0.17,7.76-0.37,11.64
			c-0.27,5.36-0.56,10.73-0.5,16.09c0.08,7.01,0.43,14.02,0.87,21.02c0.31,5.01,0.86,10,1.34,14.99c0.45,4.66,1.11,9.32,1.75,13.97
			c1.1,8.01,2.38,15.98,4.09,23.87c2.91,13.39,6.4,26.61,10.72,39.64c4.7,14.14,10.26,27.91,16.62,41.36
			c6.79,14.37,14.98,27.97,23.66,41.27c4.84,7.4,10.23,14.4,15.65,21.38c6.54,8.43,13.66,16.35,20.92,24.16
			c0.35,0.63,0.85,1.11,1.49,1.44c4.4,4.4,8.81,8.81,13.21,13.21c-0.25,0.91-0.05,1.45,1.04,1.25l-0.04-0.04
			c-0.58,0.66,0.1,1.05,0.4,1.4c4.4,5.04,8.74,10.13,13.28,15.03c4.1,4.43,8.4,8.67,12.67,12.95c10.69,10.72,22.12,20.6,34.09,29.85
			c15.53,12,31.92,22.69,49.15,32.08c16.56,9.03,33.72,16.74,51.47,23.14c19.53,7.05,39.51,12.47,59.94,16.18
			c12.59,2.28,25.27,3.93,38.04,4.86c8.41,0.61,16.83,0.78,25.25,1.06c6.38,0.21,12.73-0.12,19.08-0.17
			c8-0.06,15.98-0.73,23.96-1.48C555.59,881,560.14,880.19,564.76,880.1z"/>
		<linearGradient id="SVGID_3_" gradientUnits="userSpaceOnUse" x1="112.3346" y1="462.2635" x2="544.5662" y2="462.2635">
			<stop  offset="0.4916" style="stop-color:#6649EF"/>
			<stop  offset="1" style="stop-color:#86C1E9"/>
		</linearGradient>
		<path class="st3" d="M207.96,730.66c-7.26-7.8-14.38-15.72-20.92-24.16c-5.42-6.98-10.81-13.98-15.65-21.38
			c-8.69-13.3-16.87-26.9-23.66-41.27c-6.35-13.45-11.92-27.22-16.62-41.36c-4.33-13.02-7.82-26.25-10.72-39.64
			c-1.71-7.89-2.99-15.86-4.09-23.87c-0.64-4.65-1.3-9.31-1.75-13.97c-0.49-4.98-1.03-9.98-1.34-14.99
			c-0.44-7.01-0.79-14.01-0.87-21.02c-0.06-5.36,0.23-10.73,0.5-16.09c0.2-3.88,0.18-7.76,0.37-11.64
			c0.38-7.91,1.06-15.77,1.98-23.63c0.95-8.11,2.11-16.19,3.57-24.22c1.53-8.36,3.36-16.65,5.42-24.9
			c1.54-6.17,3.21-12.29,5.06-18.37c2.35-7.73,5.09-15.34,7.87-22.93c2.93-7.99,6.26-15.82,9.66-23.61
			c2.05-4.69,4.39-9.25,6.63-13.85c3-6.17,6.34-12.15,9.67-18.14c5.03-9.03,10.67-17.69,16.43-26.26
			c5.94-8.84,12.34-17.37,19.02-25.66c7.1-8.82,14.63-17.25,22.46-25.45c6.11-6.41,12.46-12.56,18.86-18.66
			c8.38-7.97,17.28-15.37,26.55-22.29c7.49-5.59,14.99-11.15,22.76-16.35c11.35-7.6,23.1-14.51,35.11-20.95
			c13.84-7.43,28.12-13.9,42.77-19.63c10.01-3.91,20.07-7.62,30.36-10.69c13.93-4.17,28.06-7.55,42.38-10.13
			c11.62-2.09,23.34-3.43,35.05-4.9c13.99-1.75,28.04-1.39,42.08-1.48c7.77-0.05,15.53,0.24,23.27,0.97
			c0.71,0.07,1.43,0.01,2.72,0.01c-1.22-0.72-1.95-1.15-2.67-1.58c1.53-0.14,2.9,0.27,4.34,1.28c-1.07,0.7-2.04,1.36-3.03,1.97
			c-21.42,13.16-42.85,26.31-64.26,39.48c-1.3,0.8-2.63,1.25-4.16,1.39c-7.81,0.73-15.53,2.08-23.28,3.24
			c-7.6,1.14-15.08,2.88-22.56,4.59c-9.82,2.24-19.5,5-29.08,8.08c-6.51,2.1-12.93,4.46-19.35,6.83
			c-13.26,4.9-25.97,10.98-38.58,17.31c-7.46,3.74-14.57,8.1-21.79,12.25c-10.46,6.02-20.35,12.91-30.01,20.12
			c-7.47,5.58-14.68,11.5-21.72,17.63c-7.98,6.94-15.61,14.24-23.06,21.72c-5.06,5.08-9.88,10.4-14.61,15.79
			c-7.07,8.05-13.9,16.31-20.11,25.05c-7.5,10.57-14.78,21.28-21.14,32.59c-2.71,4.82-5.35,9.68-7.93,14.57
			c-3.78,7.15-7.06,14.53-10.37,21.9c-4.4,9.78-8.31,19.74-11.68,29.92c-1.55,4.69-3.04,9.39-4.45,14.12
			c-2.4,8.04-4.31,16.19-6.1,24.38c-1.68,7.71-3.01,15.47-4.27,23.26c-1.2,7.4-1.65,14.88-2.66,22.29
			c-0.54,3.91-0.39,7.9-0.75,11.84c-0.45,4.86-0.34,9.74-0.43,14.6c-0.04,2.23-0.55,4.45-0.35,6.67c0.44,4.99,0.14,10,0.37,15
			c0.21,4.6,0.41,9.22,0.65,13.82c0.22,4.26,0.72,8.51,1.12,12.76c0.42,4.42,1.28,8.77,1.66,13.19c0.18,2.04,0.67,4.06,1.02,6.09
			c1.45,8.26,2.87,16.53,4.97,24.67c1.63,6.29,3.2,12.6,5.1,18.82c4.13,13.49,9.15,26.65,14.93,39.52
			c6.92,15.4,14.98,30.16,24.18,44.3c5.81,8.92,12.08,17.52,18.76,25.82c7.51,9.34,15.45,18.28,23.85,26.83
			c3.12,3.18,6.44,6.15,9.55,9.32c6.89,7.02,14.43,13.31,21.87,19.69c5.36,4.6,10.98,8.93,16.64,13.18
			c9.18,6.88,18.68,13.27,28.26,19.58c5.58,3.67,11.21,7.25,16.98,10.59c4.91,2.85,9.84,5.68,14.9,8.27
			c7.84,4,15.69,8.02,23.99,11.04c1.91,0.69,3.9,1.16,6.4,1.89c-2.91,0.49-5.1-0.25-7.27-0.81c-5.42-1.42-10.6-3.55-15.77-5.7
			c-12.5-5.19-24.5-11.39-36.33-17.94c-7.87-4.36-15.58-8.98-23.22-13.71c-7.79-4.82-15.41-9.91-22.88-15.22
			c-5.17-3.68-10.25-7.51-15.3-11.37c-5.9-4.51-11.63-9.23-17.28-14.04c-3.65-3.1-7.31-6.2-10.71-9.57
			c-0.45-0.44-0.8-1.11-1.62-0.93c0,0,0.04,0.04,0.04,0.04c0.03-0.73-0.52-0.98-1.04-1.25c-4.4-4.4-8.81-8.81-13.21-13.21
			C209.12,731.45,208.61,730.98,207.96,730.66z"/>
		<path class="st4" d="M610.57,719.44c-3.25-1.67-6.1-3.94-9.1-6c-37.16-25.45-74.29-50.94-111.44-76.41
			c-46.63-31.98-93.28-63.95-139.91-95.93c-23.83-16.34-47.65-32.69-71.47-49.04c-0.67-0.46-1.32-0.95-2.25-1.64
			c0.96-0.34,1.67-0.19,2.34-0.14c17.66,1.33,35.33,2.66,52.99,4c13.04,0.98,26.08,1.96,39.12,2.96c14.11,1.08,28.22,2.2,42.34,3.27
			c9.9,0.75,19.81,1.43,29.72,2.17c11.97,0.9,23.93,1.86,35.9,2.77c9.66,0.73,19.31,1.48,28.98,2.1c1.64,0.11,2.46,0.65,3.16,2.13
			c11.7,24.59,23.46,49.14,35.21,73.71c8.57,17.92,17.12,35.84,25.69,53.76c12.63,26.43,25.28,52.86,37.89,79.3
			c0.42,0.88,1.03,1.71,1.08,2.75C610.74,719.28,610.65,719.36,610.57,719.44z"/>
		<path class="st5" d="M617.77,717.86c-2.19-4.62-4.39-9.24-6.57-13.86c-14.11-29.84-28.23-59.69-42.34-89.53
			c-16.7-35.3-33.38-70.61-50.13-105.89c-0.74-1.55-0.65-2.6,0.32-4c15.12-21.64,30.19-43.33,45.27-65
			c25.62-36.83,51.23-73.66,76.85-110.49c3.07-4.42,6.14-8.83,9.23-13.24c0.45-0.65,0.79-1.42,1.81-2.03
			c-0.11,1.91-0.18,3.59-0.32,5.27c-0.98,11.71-1.96,23.42-2.96,35.13c-1.08,12.61-2.19,25.23-3.26,37.84
			c-0.75,8.82-1.43,17.65-2.17,26.47c-0.91,10.8-1.86,21.6-2.78,32.4c-0.55,6.51-1.08,13.03-1.63,19.54
			c-0.78,9.23-1.58,18.47-2.36,27.7c-0.7,8.33-1.39,16.66-2.09,24.99c-0.79,9.4-1.6,18.8-2.38,28.2
			c-0.56,6.68-1.09,13.36-1.65,20.04c-0.76,8.99-1.54,17.97-2.3,26.96c-0.56,6.68-1.1,13.36-1.66,20.04
			c-0.76,9.07-1.55,18.14-2.31,27.21c-0.56,6.68-1.1,13.36-1.66,20.04c-0.77,9.07-1.55,18.14-2.32,27.21
			c-0.56,6.68-1.1,13.36-1.66,20.04c-0.14,1.65-0.31,3.29-0.47,4.93C618.08,717.83,617.92,717.85,617.77,717.86z"/>
		<path class="st6" d="M645.66,309.92c-2.36,4.09-5.24,7.83-7.93,11.69c-30.97,44.61-61.96,89.2-92.95,133.79
			c-10.25,14.75-20.53,29.49-30.72,44.27c-1.01,1.47-2.01,2.05-3.83,1.88c-13.43-1.23-26.87-2.36-40.31-3.52
			c-11.54-1-23.08-1.99-34.62-2.99c-13.35-1.15-26.71-2.3-40.06-3.47c-14.26-1.25-28.51-2.54-42.77-3.78
			c-10.55-0.92-21.11-1.75-31.66-2.66c-10.47-0.9-20.93-1.87-31.4-2.78c-3.44-0.3-6.88-0.55-10.62-0.85
			c0.55-1.05,1.39-1.2,2.06-1.51c19.33-9.06,38.66-18.11,58-27.16c30.8-14.41,61.6-28.83,92.4-43.24
			c66.77-31.25,133.54-62.51,200.32-93.74c4.57-2.14,9.06-4.45,13.76-6.29C645.42,309.69,645.54,309.81,645.66,309.92z"/>
		<linearGradient id="SVGID_4_" gradientUnits="userSpaceOnUse" x1="88.3966" y1="676.3741" x2="90.9237" y2="676.3741">
			<stop  offset="0" style="stop-color:#80D2FB"/>
			<stop  offset="1" style="stop-color:#80D2FB"/>
		</linearGradient>
		<path class="st7" d="M88.4,673.74c0.86,1.75,2.07,3.32,2.53,5.26c-0.25-0.02-0.51-0.03-0.76-0.05
			C89.5,677.24,88.49,675.65,88.4,673.74z"/>
		<polygon class="st8" points="87.77,672.52 87.81,672.47 87.85,672.59 		"/>
		<path class="st8" d="M645.32,309.56c0.16-0.14,0.37-0.3,0.54-0.11c0.19,0.21-0.01,0.36-0.2,0.46
			C645.54,309.81,645.42,309.69,645.32,309.56z"/>
		<path class="st8" d="M610.82,719.2c0.09,0.11,0.29,0.28,0.27,0.31c-0.21,0.31-0.37,0.12-0.52-0.08
			C610.65,719.36,610.74,719.28,610.82,719.2z"/>
	</g>
</g>
</svg>
