<?xml version="1.0" encoding="iso-8859-1"?>
<!-- Generator: Adobe Illustrator 19.0.0, SVG Export Plug-In . SVG Version: 6.00 Build 0)  -->
<svg version="1.1" id="Layer_1" xmlns="http://www.w3.org/2000/svg" xmlns:xlink="http://www.w3.org/1999/xlink" x="0px" y="0px"
	 viewBox="0 0 511.448 511.448" style="enable-background:new 0 0 511.448 511.448;" xml:space="preserve">
<path style="fill:#FFFFFF;" d="M494.878,83.4v130.226l-46.649-46.638c-13.565-13.565-35.636-13.565-49.201,0L291.072,274.934
	l-63.771-63.76c-13.565-13.565-35.636-13.565-49.201,0l-90.834,90.823V83.4c0-10.052,8.174-18.227,18.227-18.227h371.159
	C486.704,65.174,494.878,73.348,494.878,83.4z M352.38,154.097c0-4.573-3.712-8.285-8.285-8.285h-19.232
	c-3.071-12.538-12.968-22.435-25.506-25.506v-19.232c0-4.573-3.712-8.285-8.285-8.285s-8.285,3.712-8.285,8.285v19.232
	c-12.538,3.071-22.435,12.968-25.506,25.506H238.05c-4.573,0-8.285,3.712-8.285,8.285c0,4.573,3.712,8.285,8.285,8.285h19.232
	c3.071,12.538,12.968,22.435,25.506,25.506v19.232c0,4.573,3.712,8.285,8.285,8.285s8.285-3.712,8.285-8.285v-19.232
	c12.538-3.071,22.435-12.968,25.506-25.506h19.232C348.668,162.382,352.38,158.67,352.38,154.097z"/>
<g>
	<path style="fill:#C2E95D;" d="M494.878,237.066v120.284c0,10.052-8.174,18.227-18.227,18.227h-84.936l-88.923-88.923
		l107.945-107.956c7.114-7.103,18.668-7.103,25.782,0L494.878,237.066z"/>
	<path style="fill:#C2E95D;" d="M215.592,222.883l152.683,152.694H105.493c-10.052,0-18.227-8.174-18.227-18.227v-31.913
		L189.81,222.883C196.924,215.78,208.478,215.78,215.592,222.883z"/>
	<path style="fill:#C2E95D;" d="M291.072,135.871c10.052,0,18.227,8.174,18.227,18.227s-8.174,18.227-18.227,18.227
		s-18.227-8.174-18.227-18.227S281.02,135.871,291.072,135.871z"/>
</g>
<g>
	<path style="fill:#535757;" d="M511.448,83.4v273.95c0,19.188-15.609,34.796-34.796,34.796h-35.901v9.389
		c0,4.573-3.712,8.285-8.285,8.285s-8.285-3.712-8.285-8.285v-9.389H105.493c-19.188,0-34.796-15.609-34.796-34.796v-221.48h-1.812
		c-4.573,0-8.285-3.712-8.285-8.285c0-4.573,3.712-8.285,8.285-8.285h1.812V83.4c0-19.188,15.609-34.796,34.796-34.796h371.159
		C495.839,48.604,511.448,64.213,511.448,83.4z M494.878,357.351V237.066l-58.358-58.369c-7.114-7.103-18.668-7.103-25.782,0
		L302.792,286.654l88.923,88.923h84.936C486.704,375.577,494.878,367.403,494.878,357.351z M494.878,213.626V83.4
		c0-10.052-8.174-18.227-18.227-18.227H105.493c-10.052,0-18.227,8.174-18.227,18.227v218.597l90.834-90.823
		c13.565-13.565,35.636-13.565,49.201,0l63.771,63.76l107.956-107.945c13.565-13.565,35.636-13.565,49.201,0L494.878,213.626z
		 M368.275,375.577L215.592,222.883c-7.114-7.103-18.668-7.103-25.782,0L87.266,325.438v31.913c0,10.052,8.174,18.227,18.227,18.227
		H368.275z"/>
	<path style="fill:#535757;" d="M433.725,428.898c4.319,1.491,6.617,6.208,5.114,10.538c-2.53,7.324-7.534,13.675-14.073,17.884
		c-1.381,0.895-2.938,1.315-4.474,1.315c-2.717,0-5.391-1.337-6.97-3.8c-2.474-3.844-1.37-8.97,2.474-11.444
		c3.435-2.209,6.064-5.545,7.39-9.378C424.678,429.693,429.406,427.396,433.725,428.898z"/>
	<path style="fill:#535757;" d="M385.751,446.274c4.573,0,8.285,3.712,8.285,8.285s-3.712,8.285-8.285,8.285h-17.674
		c-4.573,0-8.285-3.712-8.285-8.285s3.712-8.285,8.285-8.285H385.751z"/>
	<path style="fill:#535757;" d="M344.095,145.812c4.573,0,8.285,3.712,8.285,8.285c0,4.573-3.712,8.285-8.285,8.285h-19.232
		c-3.071,12.538-12.968,22.435-25.506,25.506v19.232c0,4.573-3.712,8.285-8.285,8.285s-8.285-3.712-8.285-8.285v-19.232
		c-12.538-3.071-22.435-12.968-25.506-25.506H238.05c-4.573,0-8.285-3.712-8.285-8.285c0-4.573,3.712-8.285,8.285-8.285h19.232
		c3.071-12.538,12.968-22.435,25.506-25.506v-19.232c0-4.573,3.712-8.285,8.285-8.285s8.285,3.712,8.285,8.285v19.232
		c12.538,3.071,22.435,12.968,25.506,25.506H344.095z M309.299,154.097c0-10.052-8.174-18.227-18.227-18.227
		s-18.227,8.174-18.227,18.227s8.174,18.227,18.227,18.227S309.299,164.149,309.299,154.097z"/>
	<path style="fill:#535757;" d="M332.728,446.274c4.573,0,8.285,3.712,8.285,8.285s-3.712,8.285-8.285,8.285h-17.674
		c-4.573,0-8.285-3.712-8.285-8.285s3.712-8.285,8.285-8.285H332.728z"/>
	<path style="fill:#535757;" d="M279.706,446.274c4.573,0,8.285,3.712,8.285,8.285s-3.712,8.285-8.285,8.285h-17.674
		c-4.573,0-8.285-3.712-8.285-8.285s3.712-8.285,8.285-8.285H279.706z"/>
	<path style="fill:#535757;" d="M226.683,446.274c4.573,0,8.285,3.712,8.285,8.285s-3.712,8.285-8.285,8.285h-17.674
		c-4.573,0-8.285-3.712-8.285-8.285s3.712-8.285,8.285-8.285H226.683z"/>
	<path style="fill:#535757;" d="M173.66,446.274c4.573,0,8.285,3.712,8.285,8.285s-3.712,8.285-8.285,8.285h-17.674
		c-4.573,0-8.285-3.712-8.285-8.285s3.712-8.285,8.285-8.285H173.66z"/>
	<path style="fill:#535757;" d="M120.638,446.274c4.573,0,8.285,3.712,8.285,8.285s-3.712,8.285-8.285,8.285h-17.674
		c-4.573,0-8.285-3.712-8.285-8.285s3.712-8.285,8.285-8.285H120.638z"/>
	<path style="fill:#535757;" d="M67.615,446.274c4.573,0,8.285,3.712,8.285,8.285s-3.712,8.285-8.285,8.285H49.941
		c-4.573,0-8.285-3.712-8.285-8.285s3.712-8.285,8.285-8.285H67.615z"/>
	<path style="fill:#535757;" d="M41.811,127.232c0.221,4.562-3.314,8.439-7.887,8.66c-4.12,0.188-7.942,1.723-11.057,4.43
		c-1.569,1.359-3.502,2.021-5.424,2.021c-2.32,0-4.628-0.972-6.263-2.861c-2.994-3.458-2.629-8.682,0.828-11.687
		c5.877-5.092,13.388-8.097,21.143-8.462C37.712,119.113,41.601,122.659,41.811,127.232z"/>
	<path style="fill:#535757;" d="M22.214,441.237c3.314,3.159,3.435,8.406,0.276,11.709c-1.624,1.712-3.811,2.574-5.987,2.574
		c-2.066,0-4.12-0.762-5.722-2.298c-5.634-5.369-9.334-12.56-10.439-20.237c-0.641-4.529,2.508-8.727,7.037-9.367
		c4.54-0.641,8.727,2.496,9.378,7.037C17.321,434.664,19.265,438.42,22.214,441.237z"/>
	<path style="fill:#535757;" d="M16.57,378.814v17.674c0,4.573-3.712,8.285-8.285,8.285S0,401.061,0,396.488v-17.674
		c0-4.584,3.712-8.285,8.285-8.285S16.57,374.229,16.57,378.814z"/>
	<path style="fill:#535757;" d="M16.57,325.791v17.674c0,4.573-3.712,8.285-8.285,8.285S0,348.038,0,343.465v-17.674
		c0-4.584,3.712-8.285,8.285-8.285S16.57,321.207,16.57,325.791z"/>
	<path style="fill:#535757;" d="M16.57,272.768v17.674c0,4.573-3.712,8.285-8.285,8.285S0,295.016,0,290.443v-17.674
		c0-4.584,3.712-8.285,8.285-8.285S16.57,268.184,16.57,272.768z"/>
	<path style="fill:#535757;" d="M16.57,219.746v17.674c0,4.573-3.712,8.285-8.285,8.285S0,241.993,0,237.42v-17.674
		c0-4.584,3.712-8.285,8.285-8.285S16.57,215.161,16.57,219.746z"/>
	<path style="fill:#535757;" d="M16.57,166.723v17.674c0,4.573-3.712,8.285-8.285,8.285S0,188.971,0,184.397v-17.674
		c0-4.584,3.712-8.285,8.285-8.285S16.57,162.139,16.57,166.723z"/>
</g>
<g>
</g>
<g>
</g>
<g>
</g>
<g>
</g>
<g>
</g>
<g>
</g>
<g>
</g>
<g>
</g>
<g>
</g>
<g>
</g>
<g>
</g>
<g>
</g>
<g>
</g>
<g>
</g>
<g>
</g>
</svg>
