<?xml version="1.0" encoding="utf-8"?>
<!-- Generator: Adobe Illustrator 24.1.2, SVG Export Plug-In . SVG Version: 6.00 Build 0)  -->
<svg version="1.1" id="Capa_1" xmlns="http://www.w3.org/2000/svg" xmlns:xlink="http://www.w3.org/1999/xlink" x="0px" y="0px"
	 viewBox="0 0 4000 600" style="enable-background:new 0 0 4000 600;" xml:space="preserve">
<style type="text/css">
	.st0{fill:#C2F6FF;}
	.st1{fill:#BDDBFF;}
	.st2{fill:#9BC9FF;}
</style>
<g>
	<g>
		<path class="st0" d="M93.1,101c0-0.3,0-0.6,0-0.9c0-27.3,22.2-49.5,49.5-49.5c23.5,0,43.3,16.5,48.2,38.5c4.7-2.6,10-4.1,15.8-4.1
			c17.9,0,32.3,14.5,32.3,32.3c0,0.7,0,1.5-0.1,2.2c13.3,4.9,22.7,17.7,22.7,32.6c0,19.2-15.6,34.8-34.8,34.8H102.5
			c-24,0-43.5-19.5-43.5-43.5C59,122.7,73.6,105.3,93.1,101z"/>
	</g>
	<g>
	</g>
	<g>
	</g>
	<g>
	</g>
	<g>
	</g>
	<g>
	</g>
	<g>
	</g>
	<g>
	</g>
	<g>
	</g>
	<g>
	</g>
	<g>
	</g>
	<g>
	</g>
	<g>
	</g>
	<g>
	</g>
	<g>
	</g>
	<g>
	</g>
</g>
<g>
	<g>
		<path class="st1" d="M270.3,88.6c-30.3,7.5-54.5,31.5-61.6,62.5c-27.5,4.5-48.5,28.4-48.5,57.1c0,31.9,26,57.9,57.9,57.9h72.4
			v-180C283.5,86.2,276.8,87,270.3,88.6z"/>
		<path class="st2" d="M412.3,178.2c-8.6-14.1-23.1-24.3-40.1-27c-8.6-37.6-42.3-65-81.7-65v180h72.4c31.9,0,57.9-26,57.9-57.9
			C420.7,197.3,417.6,187,412.3,178.2z"/>
	</g>
	<g>
	</g>
	<g>
	</g>
	<g>
	</g>
	<g>
	</g>
	<g>
	</g>
	<g>
	</g>
	<g>
	</g>
	<g>
	</g>
	<g>
	</g>
	<g>
	</g>
	<g>
	</g>
	<g>
	</g>
	<g>
	</g>
	<g>
	</g>
	<g>
	</g>
</g>
<g>
	<g>
		<path class="st1" d="M709.7,268.8c-32.5,8-58.3,33.8-65.9,67c-29.4,4.8-52,30.4-52,61.1c0,34.2,27.8,62,62,62h77.5V266.1
			C723.9,266.1,716.6,267,709.7,268.8z"/>
		<path class="st2" d="M861.7,364.7c-9.2-15.1-24.8-26-42.9-28.9c-9.2-40.3-45.3-69.6-87.5-69.6v192.7h77.5c34.2,0,62-27.8,62-62
			C870.7,385.1,867.4,374.1,861.7,364.7z"/>
	</g>
	<g>
	</g>
	<g>
	</g>
	<g>
	</g>
	<g>
	</g>
	<g>
	</g>
	<g>
	</g>
	<g>
	</g>
	<g>
	</g>
	<g>
	</g>
	<g>
	</g>
	<g>
	</g>
	<g>
	</g>
	<g>
	</g>
	<g>
	</g>
	<g>
	</g>
</g>
<g>
	<g>
		<path class="st0" d="M365.8,456.9c0-0.3,0-0.6,0-0.9c0-27.3,22.2-49.5,49.5-49.5c23.5,0,43.3,16.5,48.2,38.5
			c4.7-2.6,10-4.1,15.8-4.1c17.9,0,32.3,14.5,32.3,32.3c0,0.7,0,1.5-0.1,2.2c13.3,4.9,22.7,17.7,22.7,32.6
			c0,19.2-15.6,34.8-34.8,34.8H375.3c-24,0-43.5-19.5-43.5-43.5C331.8,478.6,346.3,461.3,365.8,456.9z"/>
	</g>
	<g>
	</g>
	<g>
	</g>
	<g>
	</g>
	<g>
	</g>
	<g>
	</g>
	<g>
	</g>
	<g>
	</g>
	<g>
	</g>
	<g>
	</g>
	<g>
	</g>
	<g>
	</g>
	<g>
	</g>
	<g>
	</g>
	<g>
	</g>
	<g>
	</g>
</g>
<g>
	<g>
		<path class="st1" d="M1397.7,417.9c-24.1,6-43.3,25.1-48.9,49.7c-21.8,3.6-38.6,22.6-38.6,45.4c0,25.4,20.6,46,46,46h57.5V416
			C1408.2,416,1402.9,416.6,1397.7,417.9z"/>
		<path class="st2" d="M1510.5,489.1c-6.9-11.2-18.4-19.3-31.9-21.5c-6.8-29.9-33.6-51.7-64.9-51.7v143h57.5c25.4,0,46-20.6,46-46
			C1517.2,504.2,1514.8,496.1,1510.5,489.1z"/>
	</g>
	<g>
	</g>
	<g>
	</g>
	<g>
	</g>
	<g>
	</g>
	<g>
	</g>
	<g>
	</g>
	<g>
	</g>
	<g>
	</g>
	<g>
	</g>
	<g>
	</g>
	<g>
	</g>
	<g>
	</g>
	<g>
	</g>
	<g>
	</g>
	<g>
	</g>
</g>
<g>
	<g>
		<path class="st0" d="M1583.5,158.3c0-0.3,0-0.6,0-0.9c0-27.3,22.2-49.5,49.5-49.5c23.5,0,43.3,16.5,48.2,38.5
			c4.7-2.6,10-4.1,15.8-4.1c17.9,0,32.3,14.5,32.3,32.3c0,0.7,0,1.5-0.1,2.2c13.3,4.9,22.7,17.7,22.7,32.6
			c0,19.2-15.6,34.8-34.8,34.8h-124.1c-24,0-43.5-19.5-43.5-43.5C1549.4,180,1564,162.6,1583.5,158.3z"/>
	</g>
	<g>
	</g>
	<g>
	</g>
	<g>
	</g>
	<g>
	</g>
	<g>
	</g>
	<g>
	</g>
	<g>
	</g>
	<g>
	</g>
	<g>
	</g>
	<g>
	</g>
	<g>
	</g>
	<g>
	</g>
	<g>
	</g>
	<g>
	</g>
	<g>
	</g>
</g>
<g>
	<g>
		<path class="st1" d="M1817.7,105.2c-48.2,11.9-86.6,50.1-97.9,99.4c-43.7,7.1-77.1,45.1-77.1,90.8c0,50.7,41.3,92,92,92h115v-286
			C1838.7,101.3,1828,102.6,1817.7,105.2z"/>
		<path class="st2" d="M2043.3,247.6c-13.7-22.4-36.8-38.6-63.7-43c-13.7-59.8-67.2-103.3-129.9-103.3v286h115c50.7,0,92-41.3,92-92
			C2056.7,277.9,2051.8,261.5,2043.3,247.6z"/>
	</g>
	<g>
	</g>
	<g>
	</g>
	<g>
	</g>
	<g>
	</g>
	<g>
	</g>
	<g>
	</g>
	<g>
	</g>
	<g>
	</g>
	<g>
	</g>
	<g>
	</g>
	<g>
	</g>
	<g>
	</g>
	<g>
	</g>
	<g>
	</g>
	<g>
	</g>
</g>
<g>
	<g>
		<path class="st0" d="M1003.5,150.8c0-0.5,0-1,0-1.5c0-46.2,37.5-83.7,83.7-83.7c39.9,0,73.2,27.8,81.7,65.1
			c7.9-4.4,17-6.9,26.7-6.9c30.2,0,54.7,24.5,54.7,54.7c0,1.2-0.1,2.5-0.1,3.7c22.4,8.3,38.4,29.9,38.4,55.2
			c0,32.5-26.4,58.9-58.9,58.9h-210.1c-40.7,0-73.6-33-73.6-73.6C945.9,187.6,970.5,158.2,1003.5,150.8z"/>
	</g>
	<g>
	</g>
	<g>
	</g>
	<g>
	</g>
	<g>
	</g>
	<g>
	</g>
	<g>
	</g>
	<g>
	</g>
	<g>
	</g>
	<g>
	</g>
	<g>
	</g>
	<g>
	</g>
	<g>
	</g>
	<g>
	</g>
	<g>
	</g>
	<g>
	</g>
</g>
<g>
	<g>
		<path class="st1" d="M2122.6,460.3c-18.1,4.5-32.6,18.9-36.8,37.4c-16.4,2.7-29,17-29,34.2c0,19.1,15.5,34.6,34.6,34.6h43.3V458.8
			C2130.5,458.8,2126.4,459.3,2122.6,460.3z"/>
		<path class="st2" d="M2207.4,513.9c-5.2-8.4-13.8-14.5-24-16.2c-5.2-22.5-25.3-38.9-48.9-38.9v107.6h43.3
			c19.1,0,34.6-15.5,34.6-34.6C2212.5,525.3,2210.7,519.1,2207.4,513.9z"/>
	</g>
	<g>
	</g>
	<g>
	</g>
	<g>
	</g>
	<g>
	</g>
	<g>
	</g>
	<g>
	</g>
	<g>
	</g>
	<g>
	</g>
	<g>
	</g>
	<g>
	</g>
	<g>
	</g>
	<g>
	</g>
	<g>
	</g>
	<g>
	</g>
	<g>
	</g>
</g>
<g>
	<g>
		<path class="st0" d="M2290.6,280.3c0-0.5,0-1.1,0-1.6c0-50.7,41.1-91.7,91.7-91.7c43.7,0,80.2,30.5,89.5,71.4
			c8.6-4.8,18.6-7.6,29.2-7.6c33.1,0,59.9,26.8,59.9,59.9c0,1.4-0.1,2.7-0.1,4c24.6,9.1,42.1,32.8,42.1,60.5
			c0,35.6-28.9,64.5-64.5,64.5h-230.2c-44.6,0-80.7-36.1-80.7-80.7C2227.5,320.5,2254.5,288.3,2290.6,280.3z"/>
	</g>
	<g>
	</g>
	<g>
	</g>
	<g>
	</g>
	<g>
	</g>
	<g>
	</g>
	<g>
	</g>
	<g>
	</g>
	<g>
	</g>
	<g>
	</g>
	<g>
	</g>
	<g>
	</g>
	<g>
	</g>
	<g>
	</g>
	<g>
	</g>
	<g>
	</g>
</g>
<g>
	<g>
		<path class="st1" d="M3029.1,53c-29.6,7.3-53.1,30.8-60.1,61c-26.8,4.4-47.3,27.7-47.3,55.7c0,31.1,25.3,56.4,56.4,56.4h70.6V50.7
			C3042,50.7,3035.4,51.5,3029.1,53z"/>
		<path class="st2" d="M3167.6,140.4c-8.4-13.8-22.6-23.7-39.1-26.4c-8.4-36.7-41.2-63.4-79.7-63.4v175.5h70.6
			c31.1,0,56.4-25.3,56.4-56.4C3175.8,159,3172.8,149,3167.6,140.4z"/>
	</g>
	<g>
	</g>
	<g>
	</g>
	<g>
	</g>
	<g>
	</g>
	<g>
	</g>
	<g>
	</g>
	<g>
	</g>
	<g>
	</g>
	<g>
	</g>
	<g>
	</g>
	<g>
	</g>
	<g>
	</g>
	<g>
	</g>
	<g>
	</g>
	<g>
	</g>
</g>
<g>
	<g>
		<path class="st0" d="M2926.7,453.3c0-0.3,0-0.5,0-0.8c0-25.3,20.5-45.9,45.9-45.9c21.8,0,40.1,15.3,44.7,35.7
			c4.3-2.4,9.3-3.8,14.6-3.8c16.5,0,30,13.4,30,30c0,0.7,0,1.3-0.1,2c12.3,4.6,21,16.4,21,30.3c0,17.8-14.4,32.3-32.3,32.3h-115.1
			c-22.3,0-40.3-18.1-40.3-40.3C2895.2,473.4,2908.7,457.3,2926.7,453.3z"/>
	</g>
	<g>
	</g>
	<g>
	</g>
	<g>
	</g>
	<g>
	</g>
	<g>
	</g>
	<g>
	</g>
	<g>
	</g>
	<g>
	</g>
	<g>
	</g>
	<g>
	</g>
	<g>
	</g>
	<g>
	</g>
	<g>
	</g>
	<g>
	</g>
	<g>
	</g>
</g>
<g>
	<g>
		<path class="st0" d="M3618.3,134.5c0-0.5,0-1.1,0-1.6c0-50.7,41.1-91.7,91.7-91.7c43.7,0,80.2,30.5,89.5,71.4
			c8.6-4.8,18.6-7.6,29.2-7.6c33.1,0,59.9,26.8,59.9,59.9c0,1.4-0.1,2.7-0.1,4c24.6,9.1,42.1,32.8,42.1,60.5
			c0,35.6-28.9,64.5-64.5,64.5h-230.2c-44.6,0-80.7-36.1-80.7-80.7C3555.2,174.7,3582.2,142.5,3618.3,134.5z"/>
	</g>
	<g>
	</g>
	<g>
	</g>
	<g>
	</g>
	<g>
	</g>
	<g>
	</g>
	<g>
	</g>
	<g>
	</g>
	<g>
	</g>
	<g>
	</g>
	<g>
	</g>
	<g>
	</g>
	<g>
	</g>
	<g>
	</g>
	<g>
	</g>
	<g>
	</g>
</g>
<g>
	<g>
		<path class="st1" d="M3510.4,187.4c-39,9.6-70,40.5-79.2,80.4c-35.3,5.8-62.4,36.5-62.4,73.4c0,41,33.4,74.4,74.4,74.4h93.1V184.3
			C3527.4,184.3,3518.7,185.4,3510.4,187.4z"/>
		<path class="st2" d="M3692.8,302.6c-11.1-18.1-29.7-31.2-51.5-34.7c-11.1-48.4-54.4-83.6-105-83.6v231.4h93.1
			c41,0,74.4-33.4,74.4-74.4C3703.7,327.1,3699.7,313.9,3692.8,302.6z"/>
	</g>
	<g>
	</g>
	<g>
	</g>
	<g>
	</g>
	<g>
	</g>
	<g>
	</g>
	<g>
	</g>
	<g>
	</g>
	<g>
	</g>
	<g>
	</g>
	<g>
	</g>
	<g>
	</g>
	<g>
	</g>
	<g>
	</g>
	<g>
	</g>
	<g>
	</g>
</g>
<g>
	<g>
		<path class="st0" d="M3774.5,496.1c0-0.3,0-0.5,0-0.8c0-25.3,20.5-45.9,45.9-45.9c21.8,0,40.1,15.3,44.7,35.7
			c4.3-2.4,9.3-3.8,14.6-3.8c16.5,0,30,13.4,30,30c0,0.7,0,1.3-0.1,2c12.3,4.6,21,16.4,21,30.3c0,17.8-14.4,32.3-32.3,32.3h-115.1
			c-22.3,0-40.3-18.1-40.3-40.3C3742.9,516.2,3756.4,500.1,3774.5,496.1z"/>
	</g>
	<g>
	</g>
	<g>
	</g>
	<g>
	</g>
	<g>
	</g>
	<g>
	</g>
	<g>
	</g>
	<g>
	</g>
	<g>
	</g>
	<g>
	</g>
	<g>
	</g>
	<g>
	</g>
	<g>
	</g>
	<g>
	</g>
	<g>
	</g>
	<g>
	</g>
</g>
<g>
	<g>
		<path class="st1" d="M2680.2,470.6c-9.7,2.4-17.5,10.1-19.8,20.1c-8.8,1.4-15.6,9.1-15.6,18.3c0,10.2,8.3,18.6,18.6,18.6h23.2
			v-57.8C2684.5,469.8,2682.3,470.1,2680.2,470.6z"/>
		<path class="st2" d="M2725.8,499.3c-2.8-4.5-7.4-7.8-12.9-8.7c-2.8-12.1-13.6-20.9-26.2-20.9v57.8h23.2c10.2,0,18.6-8.3,18.6-18.6
			C2728.5,505.5,2727.5,502.2,2725.8,499.3z"/>
	</g>
	<g>
	</g>
	<g>
	</g>
	<g>
	</g>
	<g>
	</g>
	<g>
	</g>
	<g>
	</g>
	<g>
	</g>
	<g>
	</g>
	<g>
	</g>
	<g>
	</g>
	<g>
	</g>
	<g>
	</g>
	<g>
	</g>
	<g>
	</g>
	<g>
	</g>
</g>
</svg>
