<?xml version="1.0" encoding="utf-8"?>
<!-- Generator: Adobe Illustrator 18.0.0, SVG Export Plug-In . SVG Version: 6.00 Build 0)  -->
<!DOCTYPE svg PUBLIC "-//W3C//DTD SVG 1.1//EN" "http://www.w3.org/Graphics/SVG/1.1/DTD/svg11.dtd">
<svg version="1.1" id="Capa_1" xmlns="http://www.w3.org/2000/svg" xmlns:xlink="http://www.w3.org/1999/xlink" x="0px" y="0px"
	 viewBox="0 0 612 792" enable-background="new 0 0 612 792" xml:space="preserve">
<g>
	<g>
		<rect x="24.3" y="114.5" fill="#BC957A" width="563.1" height="563.1"/>
		<g>
			<g>
				<defs>
					<rect id="SVGID_1_" x="24.3" y="114.5" width="563.1" height="563.1"/>
				</defs>
				<clipPath id="SVGID_2_">
					<use xlink:href="#SVGID_1_"  overflow="visible"/>
				</clipPath>
				<g clip-path="url(#SVGID_2_)">
					<path fill="#AD8468" d="M564.5,436.7c0,4.1,3.3,7.4,7.4,7.4h15.7c4.1,0,7.4-3.3,7.4-7.4v-1.2c0-4.1-3.3-7.4-7.4-7.4h-15.7
						c-4.1,0-7.4,3.3-7.4,7.4V436.7z"/>
					<path fill="#AD8468" d="M581.2,455.2c0,4.1,3.3,7.4,7.4,7.4h15.7c4.1,0,7.4-3.3,7.4-7.4v-1.2c0-4.1-3.3-7.4-7.4-7.4h-15.7
						c-4.1,0-7.4,3.3-7.4,7.4V455.2z"/>
					<path fill="#AD8468" d="M547.8,455.2c0,4.1,3.3,7.4,7.4,7.4H571c4.1,0,7.4-3.3,7.4-7.4v-1.2c0-4.1-3.3-7.4-7.4-7.4h-15.7
						c-4.1,0-7.4,3.3-7.4,7.4V455.2z"/>
					<path fill="#AD8468" d="M564.5,473.7c0,4.1,3.3,7.4,7.4,7.4h15.7c4.1,0,7.4-3.3,7.4-7.4v-1.2c0-4.1-3.3-7.4-7.4-7.4h-15.7
						c-4.1,0-7.4,3.3-7.4,7.4V473.7z"/>
					<path fill="#AD8468" d="M531.2,473.7c0,4.1,3.3,7.4,7.4,7.4h15.7c4.1,0,7.4-3.3,7.4-7.4v-1.2c0-4.1-3.3-7.4-7.4-7.4h-15.7
						c-4.1,0-7.4,3.3-7.4,7.4V473.7z"/>
					<path fill="#AD8468" d="M531.2,436.7c0,4.1,3.3,7.4,7.4,7.4h15.7c4.1,0,7.4-3.3,7.4-7.4v-1.2c0-4.1-3.3-7.4-7.4-7.4h-15.7
						c-4.1,0-7.4,3.3-7.4,7.4V436.7z"/>
					<path fill="#AD8468" d="M547.8,418.1c0,4.1,3.3,7.4,7.4,7.4H571c4.1,0,7.4-3.3,7.4-7.4v-1.2c0-4.1-3.3-7.4-7.4-7.4h-15.7
						c-4.1,0-7.4,3.3-7.4,7.4V418.1z"/>
				</g>
			</g>
			<g>
				<defs>
					<rect id="SVGID_3_" x="24.3" y="114.5" width="563.1" height="563.1"/>
				</defs>
				<clipPath id="SVGID_4_">
					<use xlink:href="#SVGID_3_"  overflow="visible"/>
				</clipPath>
				<g clip-path="url(#SVGID_4_)">
					<path fill="#AD8468" d="M547.8,610.9c0,4.1,3.3,7.4,7.4,7.4H571c4.1,0,7.4-3.3,7.4-7.4v-1.2c0-4.1-3.3-7.4-7.4-7.4h-15.7
						c-4.1,0-7.4,3.3-7.4,7.4V610.9z"/>
					<path fill="#AD8468" d="M531.2,629.4c0,4.1,3.3,7.4,7.4,7.4h15.7c4.1,0,7.4-3.3,7.4-7.4v-1.2c0-4.1-3.3-7.4-7.4-7.4h-15.7
						c-4.1,0-7.4,3.3-7.4,7.4V629.4z"/>
					<path fill="#AD8468" d="M531.2,592.4c0,4.1,3.3,7.4,7.4,7.4h15.7c4.1,0,7.4-3.3,7.4-7.4v-1.2c0-4.1-3.3-7.4-7.4-7.4h-15.7
						c-4.1,0-7.4,3.3-7.4,7.4V592.4z"/>
					<path fill="#AD8468" d="M547.8,573.9c0,4.1,3.3,7.4,7.4,7.4H571c4.1,0,7.4-3.3,7.4-7.4v-1.2c0-4.1-3.3-7.4-7.4-7.4h-15.7
						c-4.1,0-7.4,3.3-7.4,7.4V573.9z"/>
				</g>
			</g>
			<g>
				<defs>
					<rect id="SVGID_5_" x="24.3" y="114.5" width="563.1" height="563.1"/>
				</defs>
				<clipPath id="SVGID_6_">
					<use xlink:href="#SVGID_5_"  overflow="visible"/>
				</clipPath>
				<g clip-path="url(#SVGID_6_)">
					<path fill="#AD8468" d="M23.9,436.7c0,4.1,3.3,7.4,7.4,7.4H47c4.1,0,7.4-3.3,7.4-7.4v-1.2c0-4.1-3.3-7.4-7.4-7.4H31.3
						c-4.1,0-7.4,3.3-7.4,7.4V436.7z"/>
					<path fill="#AD8468" d="M40.5,455.2c0,4.1,3.3,7.4,7.4,7.4h15.7c4.1,0,7.4-3.3,7.4-7.4v-1.2c0-4.1-3.3-7.4-7.4-7.4H47.9
						c-4.1,0-7.4,3.3-7.4,7.4C40.5,453.9,40.5,455.2,40.5,455.2z"/>
					<path fill="#AD8468" d="M7.2,455.2c0,4.1,3.3,7.4,7.4,7.4h15.7c4.1,0,7.4-3.3,7.4-7.4v-1.2c0-4.1-3.3-7.4-7.4-7.4H14.6
						c-4.1,0-7.4,3.3-7.4,7.4V455.2z"/>
					<path fill="#AD8468" d="M23.9,473.7c0,4.1,3.3,7.4,7.4,7.4H47c4.1,0,7.4-3.3,7.4-7.4v-1.2c0-4.1-3.3-7.4-7.4-7.4H31.3
						c-4.1,0-7.4,3.3-7.4,7.4V473.7z"/>
					<path fill="#AD8468" d="M-9.5,473.7c0,4.1,3.3,7.4,7.4,7.4h15.7c4.1,0,7.4-3.3,7.4-7.4v-1.2c0-4.1-3.3-7.4-7.4-7.4H-2.1
						c-4.1,0-7.4,3.3-7.4,7.4V473.7z"/>
					<path fill="#AD8468" d="M-9.5,436.7c0,4.1,3.3,7.4,7.4,7.4h15.7c4.1,0,7.4-3.3,7.4-7.4v-1.2c0-4.1-3.3-7.4-7.4-7.4H-2.1
						c-4.1,0-7.4,3.3-7.4,7.4V436.7z"/>
					<path fill="#AD8468" d="M7.2,418.1c0,4.1,3.3,7.4,7.4,7.4h15.7c4.1,0,7.4-3.3,7.4-7.4v-1.2c0-4.1-3.3-7.4-7.4-7.4H14.6
						c-4.1,0-7.4,3.3-7.4,7.4V418.1z"/>
				</g>
			</g>
			<g>
				<defs>
					<rect id="SVGID_7_" x="24.3" y="114.5" width="563.1" height="563.1"/>
				</defs>
				<clipPath id="SVGID_8_">
					<use xlink:href="#SVGID_7_"  overflow="visible"/>
				</clipPath>
				<g clip-path="url(#SVGID_8_)">
					<path fill="#AD8468" d="M40.3,610.9c0,4.1,3.3,7.4,7.4,7.4h15.7c4.1,0,7.4-3.3,7.4-7.4v-1.2c0-4.1-3.3-7.4-7.4-7.4H47.7
						c-4.1,0-7.4,3.3-7.4,7.4C40.3,609.7,40.3,610.9,40.3,610.9z"/>
					<path fill="#AD8468" d="M23.6,629.4c0,4.1,3.3,7.4,7.4,7.4h15.7c4.1,0,7.4-3.3,7.4-7.4v-1.2c0-4.1-3.3-7.4-7.4-7.4H31
						c-4.1,0-7.4,3.3-7.4,7.4V629.4z"/>
					<path fill="#AD8468" d="M23.6,592.4c0,4.1,3.3,7.4,7.4,7.4h15.7c4.1,0,7.4-3.3,7.4-7.4v-1.2c0-4.1-3.3-7.4-7.4-7.4H31
						c-4.1,0-7.4,3.3-7.4,7.4V592.4z"/>
					<path fill="#AD8468" d="M40.3,573.9c0,4.1,3.3,7.4,7.4,7.4h15.7c4.1,0,7.4-3.3,7.4-7.4v-1.2c0-4.1-3.3-7.4-7.4-7.4H47.7
						c-4.1,0-7.4,3.3-7.4,7.4C40.3,572.6,40.3,573.9,40.3,573.9z"/>
				</g>
			</g>
		</g>
	</g>
	<g>
		<path fill="#AA7550" d="M574.5,201.2v-53.4c-9.7,0-17.5-7.7-17.8-17.2H55.3c-0.3,9.6-8.2,17.2-17.8,17.2v53.4
			c9.9,0,17.8,8,17.8,17.8c0,0.7,0,1.3-0.1,2h501.5c-0.1-0.6-0.1-1.3-0.1-2C556.7,209.2,564.6,201.2,574.5,201.2z"/>
		<g>
			<path fill="#593628" d="M490.8,191.5c0,0-5.8,7.5-15.7,5.5c-9.9-2-18.1-10-19.8-18.2c-1.7-8.2,1.4-15.2,5.6-15.1
				s7.4,5.6,11.4,14.1c4,8.5,15.6,11.2,15.6,11.2s-5.1-3.2-7.1-7.7c-2-4.4-7.9-17.5-17.7-19.4c0,0,8.9-6.2,21.2,2.4
				C496.5,172.9,495.5,186.4,490.8,191.5z"/>
			<path fill="#593628" d="M121.2,191.5c0,0,5.8,7.5,15.7,5.5c9.9-2,18.1-10,19.8-18.2c1.7-8.2-1.4-15.2-5.6-15.1
				c-4.2,0.1-7.4,5.6-11.4,14.1c-4,8.5-15.6,11.2-15.6,11.2s5.1-3.2,7.1-7.7c2-4.4,7.9-17.5,17.7-19.4c0,0-8.9-6.2-21.2,2.4
				C115.5,172.9,116.5,186.4,121.2,191.5z"/>
			<g>
				<path fill="#593628" d="M208.3,184.3c-3.2,8.7-11.1,10.5-16.7,10.5c-6.1,0-13-3-13-15.2c0-13,4.2-29.8,20-29.8
					c5.5,0,10.4,2.2,10.4,8c0,3.2-1.1,5.5-4.2,5.5c-1,0-2.3-0.2-3.4-1.5c1.5-0.4,2.6-3.4,2.6-4.9c0-1-0.3-4.2-4.1-4.2
					c-7.3,0-12,15.1-12,25.7c0,7.8,1.4,11.1,7.9,11.1c4.6,0,8.9-1.9,11.1-5.7L208.3,184.3z"/>
				<path fill="#593628" d="M229.2,172.8c0.4,0.4,0.9,0.5,1.7,0.5c2.8,0,4-2,6.2-2.9l0.2,1.2c-1.8,2.3-4.9,4.3-8.4,5.2
					c-1.1,12-7.6,17.8-13.6,17.8c-6.4,0-9.1-2.7-9.1-9.8c0-14.6,7.4-20.9,15.6-20.9C227.6,164.1,229,168.5,229.2,172.8z
					 M224.6,177.5c-1.7,0-2.5-1.2-2.5-2.7c0-1.7,1-3.6,2.6-4.2c-0.2-2-0.8-3.1-2.5-3.1c-5.6,0-8,12.1-8,16.9c0,3.6,1.7,4.5,4,4.5
					C221.8,189,223.9,183.3,224.6,177.5z"/>
				<path fill="#593628" d="M219.5,202.8c0-5.5,4.6-7.2,10.3-8.9l7.1-34c1.8-8.5,6.9-10.1,10.8-10.1c2.7,0,5.2,1.4,6.4,3.7
					c2.4-3,5.5-3.7,8.2-3.7c3.6,0,7,2.6,7,6.4c0,1-0.1,1.7-0.2,2.4h-2.8c0.1-0.6,0.1-1.1,0.1-1.6c0-1.4-1.1-2-2.3-2
					c-1.3,0-3.2,0.7-4,4.7l-1.1,4.9h5.9l-0.5,2.4h-5.9l-6.7,32.1c-1.8,8.5-6.9,10.1-10.8,10.1c-3.4,0-5.5-1.5-6.4-3.7
					c-2.3,3-5.5,3.7-8.1,3.7C222.8,209.3,219.5,206.7,219.5,202.8z M225.5,204c1.2,0,2.8-1.1,3.5-4.6l0.7-3.5
					c-3.7,1.2-6.6,2.9-6.6,6.1C223.1,202.8,224.2,204,225.5,204z M239.6,204c1.1,0,2.7-1.1,3.5-4.6l1.4-6.8l-6.1,1.1
					c-1.4,6.8-1.8,8.1-2.3,9.1C236.7,203.7,238.1,204,239.6,204z M238.7,192.2l6.1-1.1l5.1-24.1H244L238.7,192.2z M249.6,155.1
					c-1.3,0-3.2,0.7-4,4.7l-1.1,4.9h5.9l1-4.7c0.2-1,0.5-1.9,0.5-2.9C251.9,155.7,250.8,155.1,249.6,155.1z"/>
				<path fill="#593628" d="M275.2,190.1c2.9,0,7.9-3.5,10-7.9h2.7c-3.4,6.1-9.1,12.1-16.8,12.1c-5.7,0-8.8-4.3-8.8-9.5
					c0-7.6,3.2-20.8,14-20.8c4.9,0,7.6,2,7.6,6.2c0,7.3-7.8,11.4-13.4,12.1c-0.1,1-0.2,1.8-0.2,2.6
					C270.3,188.9,272.9,190.1,275.2,190.1z M278.3,167.3c-3.3,0-6.1,6.7-7.3,12.3c5.5-0.1,9.3-4.8,9.4-9
					C280.4,169.3,280.1,167.3,278.3,167.3z"/>
				<path fill="#593628" d="M282.9,184.9c0-7.6,3.2-20.8,14-20.8c4.9,0,7.6,2,7.6,6.2c0,7.3-7.8,11.4-13.4,12.1
					c-0.1,1-0.2,1.8-0.2,2.6c0,3.9,2,5.1,4.3,5.1c2.8,0,5.2-1.6,7.6-3.8c0,6.4-5.2,8.1-11.1,8.1C286,194.4,282.9,190.1,282.9,184.9z
					 M298.9,167.3c-3.3,0-6.1,6.7-7.3,12.3c5.5-0.1,9.3-4.8,9.4-9C301,169.3,300.7,167.3,298.9,167.3z"/>
				<path fill="#593628" d="M346,162.9c-1,0-1.9-0.4-2.7-1.2c1.6-1,2.7-3.2,2.7-5.1c0-2.1-1.2-4-4.3-4c-3.3,0-5.5,1.9-5.5,5.2
					c0,9.3,13.4,9.9,13.4,23.1c0,8.4-6.2,13.8-15.8,13.8c-4.8,0-13.1-1-13.1-9.6c0-5.6,4.2-8.6,8.7-8.6c2.7,0,4.3,0.9,4.8,3
					c-4.8,0.4-7,2.4-7,6.5c0,4,3.1,5.7,5.9,5.7c4.7,0,6.5-4.1,6.5-8.5c0-11.2-12.9-13.6-12.9-22.5c0-6.2,7.1-11.1,14.2-11.1
					c3.2,0,10,0.5,10,7.1C350.9,160.3,349.1,162.9,346,162.9z"/>
				<path fill="#593628" d="M376.1,184.9c-0.2,0.7-0.3,1.4-0.3,1.9c0,1.3,0.7,2.2,3,2.2c2.4,0,5.5-3.3,7.9-5.2h2
					c-2.7,2.7-9.5,10.6-14.1,10.6c-4.6,0-7.4-2-7.4-6.5c0-1,0.1-1.9,0.4-3l2.3-10.7c0.1-0.5,0.2-1.1,0.2-1.5c0-2.1-1.1-3.5-2.7-3.5
					c-1.4,0-2.5,0.4-3.7,1.2l-5.1,24h-8.6l8.6-40.5l8.8-1.2l-3.2,15.1c2.4-1.7,5.2-3.2,7.7-3.2c3.2,0,6.8,3.5,6.8,7.4
					c0,0.5,0,1-0.1,1.4L376.1,184.9z"/>
				<path fill="#593628" d="M404,172.8c0.4,0.4,0.9,0.5,1.7,0.5c2.8,0,4-2,6.2-2.9l0.2,1.2c-1.8,2.3-4.9,4.3-8.4,5.2
					c-1.1,12-7.6,17.8-13.6,17.8c-6.4,0-9.1-2.7-9.1-9.8c0-14.6,7.4-20.9,15.6-20.9C402.4,164.1,403.9,168.5,404,172.8z
					 M399.4,177.5c-1.7,0-2.5-1.2-2.5-2.7c0-1.7,1-3.6,2.6-4.2c-0.2-2-0.8-3.1-2.5-3.1c-5.6,0-8,12.1-8,16.9c0,3.6,1.7,4.5,4,4.5
					C396.7,189,398.7,183.3,399.4,177.5z"/>
				<path fill="#593628" d="M419.4,164.7l-0.2,1.1c1.2-0.7,2.7-1.1,4.2-1.1c6.2,0,9.1,2.2,9.1,8.3c0,1.2-0.1,2.6-0.4,4.2
					c-1.8,12.8-7,17.1-13,17.1c-2,0-3.8-0.7-5.6-1.8l-3.1,14.6l-9,2.1l9.5-44.6L419.4,164.7L419.4,164.7z M424.4,177.9
					c0.5-2.6,0.8-4.6,0.8-6c0-3.6-1.4-4.3-3.3-4.3c-1.1,0-2.3,0.5-3.4,1.2l-4.3,20c1.4,1.1,2.9,1.1,3.9,1.1
					C421.1,189.9,422.5,187.4,424.4,177.9z"/>
			</g>
		</g>
	</g>
	<g>
		<g>
			<g>
				<g>
					<g>
						<rect x="369.1" y="300.3" fill="#8C5945" width="175.5" height="377.2"/>
						<g>
							<rect x="383.2" y="310.5" fill="#593628" width="147.9" height="251.8"/>
							<rect x="391.6" y="321" fill="#8C5945" width="131" height="230.9"/>
							<g>
								<rect x="399.5" y="332.1" fill="#192938" width="115.2" height="208.6"/>
							</g>
						</g>
					</g>
				</g>
				<g>
					<rect x="382.5" y="571.2" fill="#593628" width="147.9" height="96.1"/>
					<rect x="391" y="579.3" fill="#8C5945" width="131" height="79.9"/>
				</g>
			</g>
			<g>
				<circle fill="#D8D4D5" cx="456.4" cy="412.8" r="4.1"/>
				<g>
					<g>
						<polygon fill="#C1B9BC" points="476.2,428.2 456.5,413.3 437.7,427.9 437.1,427.2 456.5,412.2 476.8,427.5 						"/>
					</g>
					<path fill="#E2CAC7" d="M484.8,440.7c0,3.6-3,6.6-6.6,6.6h-42.6c-3.6,0-6.6-3-6.6-6.6V432c0-3.6,3-6.6,6.6-6.6h42.6
						c3.6,0,6.6,3,6.6,6.6V440.7z"/>
					<g>
						<path fill="#8C5945" d="M443.6,429.3c1,0,1.8,0.4,2.5,1.1c0.7,0.7,1,1.5,1,2.5v8.2c0,1-0.4,1.8-1.1,2.5c-0.7,0.7-1.5,1-2.5,1
							c-1,0-1.8-0.4-2.5-1.1c-0.7-0.7-1-1.5-1-2.5v-8.2c0-1,0.3-1.8,1.1-2.5C441.7,429.7,442.6,429.3,443.6,429.3z M444.8,432.8
							c0-0.4-0.1-0.7-0.4-0.9c-0.2-0.2-0.6-0.4-0.9-0.4c-0.4,0-0.7,0.1-0.9,0.4c-0.3,0.3-0.4,0.6-0.4,0.9v8.2c0,0.4,0.1,0.7,0.4,0.9
							c0.3,0.2,0.6,0.4,0.9,0.4c0.4,0,0.7-0.1,0.9-0.4c0.3-0.2,0.4-0.6,0.4-0.9V432.8z"/>
						<path fill="#8C5945" d="M452.7,429.5c1.1,0,2,0.3,2.6,1c0.6,0.7,0.9,1.5,0.9,2.5v2.2c0,1-0.3,1.8-1,2.5
							c-0.7,0.7-1.5,1.1-2.5,1.1h-1.3v5.6h-2.3v-15L452.7,429.5L452.7,429.5z M454,433.1c0-0.4-0.1-0.7-0.4-0.9
							c-0.2-0.2-0.5-0.4-0.9-0.4h-1.4v4.8h1.4c0.4,0,0.7-0.1,0.9-0.4c0.2-0.3,0.4-0.6,0.4-0.9L454,433.1L454,433.1z"/>
						<path fill="#8C5945" d="M458,444.5v-15h6.4v2.3h-4.2v4.1h3v2.3h-3v4.1h4.2v2.3H458z"/>
						<path fill="#8C5945" d="M468.5,429.5l3,10.1v-10.1h2.3v15h-2.4l-3.1-9.6v9.6H466v-15H468.5z"/>
					</g>
				</g>
			</g>
		</g>
		<g>
			<g>
				<rect x="62.6" y="565.2" fill="#AA7550" width="295.4" height="102.1"/>
				<g>
					<path fill="#BC957A" d="M351.1,641.7v-53.4c-9.7,0-17.5-7.7-17.8-17.2h-246c-0.3,9.6-8.2,17.2-17.8,17.2v53.4
						c9.9,0,17.8,8,17.8,17.8c0,0.7,0,1.3-0.1,2h246.2c-0.1-0.6-0.1-1.3-0.1-2C333.3,649.7,341.2,641.7,351.1,641.7z"/>
				</g>
			</g>
			<g>
				<g>
					<g>
						<g>
							<rect x="62.6" y="334.5" fill="#8C5945" width="295.4" height="217.3"/>
							<rect x="69.5" y="342.8" fill="#192938" width="281.6" height="200.8"/>
						</g>
						<g>
							<g>
								<g>
									<path fill="#496477" d="M172.8,468.3L172.8,468.3c-0.4-2.5-0.9-4.1-0.9-4.1c-2.7,8.4-22.4,9.1-27.5,9.1
										c-6.1,0-24.8-0.4-27.6-8.8c0,0-4.5,13.6,4.2,25.5c7.9,10.8,20.9,11.1,23.6,11.1c2.8,0,15.7-0.4,23.5-11.4
										c0.7-1,1.3-1.9,1.8-2.9l0,0c0,0,11.9,2.2,12.2-9.4C182,468.3,172.8,468.3,172.8,468.3z M177.2,478.8c0,0-0.5,4.6-5.4,3.6v0
										c1.1-3.3,1.4-6.4,1.4-9.1l0,0C178.1,473.7,177.2,478.8,177.2,478.8z"/>
								</g>
								<path fill="#496477" d="M170.8,463.6c0,2.4-9,8.2-26.7,8.2c-18,0-26.7-5.8-26.7-8.2c0-2.4,8.5-5.2,26.7-5.2
									S170.8,461.2,170.8,463.6z"/>
								<g>
									<path fill="#496477" d="M146.6,460.1c0,0,5.5-7.3,4.1-11.9c-1-3.3-4.3-4.4-4.2-11.7c0,0-1.3,5.9,1.1,11.8
										C149.7,453.7,146.6,460.1,146.6,460.1z"/>
									<path fill="#496477" d="M141.8,441.8c0,0,5.6,7.2,4.2,11.9c-1,3.3-4.3,4.5-4.1,11.7c0,0-1.4-5.9,0.9-11.8
										C144.9,448.1,141.8,441.8,141.8,441.8z"/>
								</g>
							</g>
							<g>
								<path fill="#496477" d="M217.4,485.7c-2.7,7.5-9.6,9.1-14.4,9.1c-5.2,0-11.3-2.6-11.3-13.1c0-11.2,3.7-25.8,17.3-25.8
									c4.8,0,9,1.9,9,6.9c0,2.7-1,4.7-3.6,4.7c-0.8,0-2-0.2-2.9-1.3c1.3-0.4,2.3-2.9,2.3-4.2c0-0.8-0.3-3.7-3.6-3.7
									c-6.3,0-10.4,13.1-10.4,22.2c0,6.7,1.2,9.6,6.8,9.6c4,0,7.7-1.6,9.6-4.9L217.4,485.7z"/>
								<path fill="#496477" d="M235.4,475.7c0.3,0.3,0.8,0.5,1.5,0.5c2.4,0,3.5-1.8,5.4-2.5l0.2,1.1c-1.6,2-4.3,3.7-7.3,4.5
									c-1,10.3-6.6,15.4-11.7,15.4c-5.5,0-7.9-2.3-7.9-8.4c0-12.7,6.4-18.1,13.5-18.1C234.1,468.2,235.3,472,235.4,475.7z
									 M231.5,479.8c-1.5,0-2.2-1.1-2.2-2.3c0-1.5,0.9-3.1,2.3-3.6c-0.2-1.7-0.7-2.7-2.2-2.7c-4.8,0-6.9,10.5-6.9,14.6
									c0,3.1,1.4,3.9,3.4,3.9C229.1,489.7,230.9,484.8,231.5,479.8z"/>
								<path fill="#496477" d="M227.1,501.7c0-4.7,4-6.2,8.9-7.7l6.2-29.4c1.5-7.4,6-8.7,9.4-8.7c2.3,0,4.5,1.2,5.5,3.2
									c2.1-2.6,4.8-3.2,7.1-3.2c3.1,0,6.1,2.2,6.1,5.6c0,0.8-0.1,1.5-0.2,2.1h-2.4c0.1-0.5,0.1-0.9,0.1-1.4c0-1.2-0.9-1.7-2-1.7
									c-1.1,0-2.7,0.6-3.5,4.1l-0.9,4.2h5.1l-0.5,2.1h-5.1l-5.8,27.8c-1.5,7.4-6,8.7-9.4,8.7c-2.9,0-4.7-1.3-5.6-3.2
									c-2,2.6-4.7,3.2-7,3.2C230,507.3,227.1,505.1,227.1,501.7z M232.3,502.7c1,0,2.4-1,3-4l0.6-3c-3.2,1.1-5.7,2.5-5.7,5.3
									C230.2,501.7,231.1,502.7,232.3,502.7z M244.5,502.7c1,0,2.4-1,3-4l1.2-5.9l-5.3,1c-1.2,5.9-1.6,7-2,7.9
									C242,502.5,243.2,502.7,244.5,502.7z M243.7,492.5l5.3-0.9l4.4-20.8h-5.1L243.7,492.5z M253.1,460.4c-1.1,0-2.7,0.6-3.5,4.1
									l-0.9,4.2h5.1l0.9-4.1c0.2-0.9,0.4-1.6,0.4-2.5C255.1,461,254.2,460.4,253.1,460.4z"/>
								<path fill="#496477" d="M275.3,490.7c2.5,0,6.8-3,8.6-6.8h2.3c-2.9,5.3-7.9,10.5-14.5,10.5c-4.9,0-7.6-3.8-7.6-8.2
									c0-6.5,2.8-18,12.1-18c4.2,0,6.6,1.7,6.6,5.4c0,6.3-6.7,9.9-11.6,10.5c-0.1,0.8-0.2,1.6-0.2,2.2
									C271.1,489.7,273.3,490.7,275.3,490.7z M278,470.9c-2.9,0-5.2,5.8-6.3,10.7c4.7-0.1,8.1-4.1,8.1-7.8
									C279.8,472.7,279.5,470.9,278,470.9z"/>
								<path fill="#496477" d="M282,486.2c0-6.5,2.8-18,12.1-18c4.2,0,6.6,1.7,6.6,5.4c0,6.3-6.7,9.9-11.6,10.5
									c-0.1,0.8-0.2,1.6-0.2,2.2c0,3.4,1.7,4.4,3.7,4.4c2.4,0,4.5-1.4,6.6-3.3c0,5.6-4.5,7-9.6,7C284.6,494.4,282,490.7,282,486.2
									z M295.8,470.9c-2.9,0-5.2,5.8-6.3,10.7c4.7-0.1,8.1-4.1,8.1-7.8C297.6,472.7,297.4,470.9,295.8,470.9z"/>
							</g>
						</g>
					</g>
					<path opacity="0.2" fill="#FCFAFA" enable-background="new    " d="M117.9,536.4h222.4V408.7
						C340.3,408.7,294.9,531,117.9,536.4z"/>
				</g>
				<g>
					<rect x="59" y="332.1" fill="#E2C7B5" width="302.6" height="72.7"/>
					<g>
						<g>
							<g>
								<rect x="59" y="400.7" fill="#D6B49D" width="302.6" height="4.2"/>
								<rect x="59" y="392.4" fill="#D6B49D" width="302.6" height="4.2"/>
							</g>
							<g>
								<rect x="59" y="384.2" fill="#D6B49D" width="302.6" height="4.2"/>
								<rect x="59" y="375.9" fill="#D6B49D" width="302.6" height="4.2"/>
							</g>
						</g>
						<g>
							<g>
								<rect x="59" y="367.6" fill="#D6B49D" width="302.6" height="4.2"/>
								<rect x="59" y="359.3" fill="#D6B49D" width="302.6" height="4.2"/>
							</g>
							<g>
								<rect x="59" y="351.1" fill="#D6B49D" width="302.6" height="4.2"/>
								<rect x="59" y="342.8" fill="#D6B49D" width="302.6" height="4.2"/>
								<rect x="59" y="334.5" fill="#D6B49D" width="302.6" height="4.2"/>
							</g>
						</g>
					</g>
				</g>
			</g>
		</g>
	</g>
	<g>
		<path fill="#593628" d="M24.3,232.7c0,0-22.6,60.7-23.9,65.8c-1.3,5.1,0.8,18.3,14.8,18.5c14,0.3,21.8-8.9,24.5-15.6
			c2.7-6.7,22-68.8,22-68.8L24.3,232.7L24.3,232.7z"/>
		<path fill="#7A4836" d="M40.2,299.8H0.1l0,0c-0.7,5.8,2.2,16.9,15,17.2c14,0.3,21.8-8.9,24.5-15.6
			C39.7,301.1,39.9,300.5,40.2,299.8z"/>
		<path fill="#8C5945" d="M61.6,232.7h37.8c0,0-19,69.6-21.1,74.2c-2.1,4.6-8.5,12.7-23.6,11.6c-15-1.1-15.4-15.6-13.7-20.6
			C42.6,292.8,61.6,232.7,61.6,232.7z"/>
		<path fill="#A06350" d="M40.4,299.8c-0.9,6.1,0.9,17.6,14.2,18.5c15.2,1.1,21.5-7,23.6-11.6c0.3-0.7,1-2.8,2-5.9l0.2-1H40.4z"/>
		<path fill="#593628" d="M99.4,232.7h37.4c0,0-15.6,71-16.1,72.7c-0.5,1.7-6.9,12.4-21.3,13.1s-21.3-10.3-19-18.2
			C83.7,289.2,99.4,232.7,99.4,232.7z"/>
		<path fill="#7A4836" d="M121.9,299.8H80.6c0,0.2-0.1,0.3-0.1,0.5c-2.3,7.9,4.6,18.9,19,18.2c12-0.6,18.4-8.1,20.5-11.6
			L121.9,299.8z"/>
		<path fill="#8C5945" d="M136.9,232.7h36.5c0,0-10.5,66.4-12.1,72.7c-1.6,6.3-10.2,14.6-24.5,13.1c-14.2-1.4-16.4-11.7-14.9-18.2
			C123.6,292.6,136.9,232.7,136.9,232.7z"/>
		<path fill="#A06350" d="M162.3,299.8H122c0,0.2-0.1,0.3-0.1,0.5c-1.5,6.5,0.7,16.7,14.9,18.2c14.2,1.4,22.8-6.8,24.5-13.1
			c0.2-0.8,0.5-2.6,1-5.1L162.3,299.8z"/>
		<path fill="#593628" d="M173.4,232.7h38.2l-8,71.8c0,0-7.3,15.3-23.9,14.1c-16.7-1.2-18-13.8-17.3-18.2
			C163.1,295.9,173.4,232.7,173.4,232.7z"/>
		<path fill="#7A4836" d="M179.6,318.5c15.7,1.1,23-12.4,23.9-14v-4.2h-41.1C161.6,304.7,163,317.3,179.6,318.5z"/>
		<path fill="#8C5945" d="M210.6,232.7h38l-5,74.4c0,0-7.5,13-22.3,11.5c-14.8-1.5-18.4-11.3-17.7-15.8
			C204.2,298.3,210.6,232.7,210.6,232.7z"/>
		<path fill="#A06350" d="M203.8,300.3c-0.1,1.2-0.2,2.1-0.3,2.5c-0.7,4.5,2.9,14.2,17.7,15.8c14.8,1.5,22.3-11.5,22.3-11.5l0.5-6.8
			L203.8,300.3L203.8,300.3z"/>
		<path fill="#593628" d="M248.6,232.7h37.7l-2.1,72.7c0,0-6.3,13-22.1,12.2c-15.8-0.8-18.4-12.2-18.4-12.2L248.6,232.7z"/>
		<path fill="#7A4836" d="M284.2,300.3H244l-0.2,5.5c0.7,2.2,4.4,11,18.3,11.7c15.8,0.8,22.1-12.2,22.1-12.2l0-1.2L284.2,300.3
			L284.2,300.3z"/>
		<path fill="#8C5945" d="M286.3,232.7h36.8l1.9,72.7c0,0-1,11.7-20,12.2c-19,0.5-20.8-13.5-20.8-13.5L286.3,232.7z"/>
		<path fill="#A06350" d="M324.8,306.3l-0.4-6h-40.2l-0.1,3.8c0,0,1.8,14,20.8,13.5C320.7,317.2,324.1,309.2,324.8,306.3z"/>
		<path fill="#593628" d="M323.1,232.7h39l4,72.7c0,0-2.4,12-18.8,12.2c-16.4,0.2-22.2-10.2-22.3-13.7
			C324.8,300.3,323.1,232.7,323.1,232.7z"/>
		<path fill="#7A4836" d="M366,305.7l-0.1-3l-0.1-2.5h-40.9c0.1,1.9,0.1,3.1,0.1,3.6c0.1,3.6,5.9,14,22.3,13.7
			C362,317.4,365.4,307.7,366,305.7z"/>
		<path fill="#8C5945" d="M362.1,232.7h36.8l8.6,72.7c0,0-5.6,12.9-20.4,12.3c-14.8-0.6-18-7.2-21-12.3L362.1,232.7z"/>
		<path fill="#A06350" d="M407.2,305.9l-0.3-5.6h-41.1v0l0.3,5.1c3,5.1,6.2,11.7,21,12.3C400,318.2,406,308.3,407.2,305.9z"/>
		<path fill="#593628" d="M398.9,232.7H437l11.3,72.7c0,0-2.6,10.8-16.4,12.2c-17.7,1.9-24.5-12.2-24.5-12.2l-8.5-71.8"/>
		<path fill="#7A4836" d="M448.3,305.4l-0.8-5l0,0h-40.7l0.6,5.1c0,0,6.7,14.1,24.5,12.2C445.8,316.2,448.3,305.4,448.3,305.4z"/>
		<path fill="#8C5945" d="M437,232.7h36.3l16.1,72.7c0,0-2.7,12.1-16.4,12.4c-13.7,0.3-24.2-9.2-24.7-12.4L437,232.7z"/>
		<path fill="#A06350" d="M488.3,300.3h-40.8l0,0l1,5.6c1.5,3.7,11.6,12.2,24.5,11.8c13.7-0.3,16.4-12.4,16.4-12.4L488.3,300.3z"/>
		<path fill="#593628" d="M473.3,232.7h38.3l18.4,72.7c0,0,0,12.4-16.9,12.4c-17.5,0-23.7-12.4-23.7-12.4L473.3,232.7z"/>
		<path fill="#7A4836" d="M528.7,300.3h-40.4v0l1.1,5.1c0,0,6.2,12.4,23.7,12.4c16.9,0,16.9-12.4,16.9-12.4L528.7,300.3z"/>
		<path fill="#8C5945" d="M511.6,232.7H548l23.4,72.7c0,0,1.6,12.4-17.5,12.4c-17.5,0-23.9-12.4-23.9-12.4L511.6,232.7z"/>
		<path fill="#A06350" d="M571.4,305.4l-1.6-5.1v0h-41l0,0l1.3,5c0,0,6.5,12.4,23.9,12.4C573,317.8,571.4,305.4,571.4,305.4z"/>
		<path fill="#593628" d="M548,232.7h39.2l24.7,70.9c0,0,0.9,12.8-13.8,14.2c-18.2,1.7-26.8-12.4-26.8-12.4L548,232.7z"/>
		<path fill="#7A4836" d="M598.2,317.8c14.7-1.4,13.8-14.2,13.8-14.2l-1.1-3.3v0h-41.1v0l1.6,5.1C571.4,305.4,580,319.5,598.2,317.8
			z"/>
	</g>
</g>
</svg>
