<?xml version="1.0" encoding="iso-8859-1"?>
<!-- Generator: Adobe Illustrator 19.0.0, SVG Export Plug-In . SVG Version: 6.00 Build 0)  -->
<svg version="1.1" id="Layer_1" xmlns="http://www.w3.org/2000/svg" xmlns:xlink="http://www.w3.org/1999/xlink" x="0px" y="0px"
	 viewBox="0 0 512 512" style="enable-background:new 0 0 512 512;" xml:space="preserve">
<path style="fill:#D6E5F6;" d="M441.634,278.448H418.43H310.144H286.94h-23.204H93.572H70.367H47.163v117.531v92.817
	c0,12.815,10.389,23.204,23.204,23.204H286.94h154.694c12.815,0,23.204-10.389,23.204-23.204V278.448H441.634z"/>
<path style="fill:#A90028;" d="M511.239,162.279c-0.003-0.534-0.04-1.058-0.08-1.581c-0.02-0.265-0.028-0.529-0.056-0.795
	c-0.043-0.404-0.118-0.8-0.183-1.197c-0.063-0.39-0.116-0.78-0.201-1.169c-0.057-0.269-0.138-0.531-0.204-0.797
	c-0.127-0.5-0.255-1.002-0.418-1.501c-0.017-0.049-0.026-0.099-0.042-0.149L463.647,15.867C460.49,6.39,451.621,0,441.634,0H256.001
	H70.367C60.38,0,51.513,6.39,48.354,15.865L1.946,155.089c-0.017,0.049-0.026,0.099-0.042,0.149
	c-0.161,0.498-0.291,0.999-0.418,1.501c-0.067,0.266-0.147,0.528-0.204,0.797c-0.085,0.39-0.138,0.78-0.201,1.169
	c-0.065,0.398-0.139,0.794-0.183,1.197c-0.029,0.266-0.036,0.531-0.056,0.795c-0.039,0.523-0.077,1.049-0.08,1.581
	c0,0.049-0.008,0.099-0.008,0.148v92.817c0,12.815,10.389,23.204,23.204,23.204h23.204h23.204h23.204h162.429h7.735h23.204h23.204
	H418.43h23.204h23.204h23.204c12.815,0,23.204-10.389,23.204-23.204v-92.817C511.247,162.378,511.239,162.329,511.239,162.279z"/>
<path style="fill:#70001E;" d="M56.154,139.223h-24.46h-7.735c-10.303,0-19.027,6.721-22.056,16.016
	c-0.162,0.498-0.291,0.999-0.418,1.501c-0.067,0.266-0.147,0.528-0.204,0.797c-0.085,0.39-0.138,0.78-0.201,1.169
	c-0.065,0.398-0.139,0.794-0.183,1.197c-0.029,0.266-0.037,0.531-0.056,0.795c-0.039,0.523-0.077,1.049-0.08,1.581
	c0,0.049-0.008,0.099-0.008,0.149v92.817c0,12.815,10.389,23.204,23.204,23.204h23.204h23.204H93.57h162.429V139.223H56.154
	L56.154,139.223z"/>
<g>
	<path style="fill:#8B0023;" d="M511.239,162.279c-0.003-0.534-0.04-1.058-0.08-1.581c-0.02-0.265-0.028-0.529-0.056-0.795
		c-0.043-0.404-0.118-0.8-0.183-1.197c-0.063-0.39-0.116-0.78-0.201-1.169c-0.057-0.269-0.138-0.531-0.204-0.797
		c-0.127-0.5-0.255-1.001-0.418-1.501c-3.029-9.292-11.754-16.016-22.056-16.016h-7.735h-24.459H256.001v139.225h7.735h23.204
		h23.204H418.43h23.204h23.204h23.204c12.815,0,23.204-10.389,23.204-23.204v-92.817
		C511.247,162.378,511.239,162.329,511.239,162.279z"/>
	<path style="fill:#8B0023;" d="M23.959,139.223h7.735h24.46h199.848V0H70.369c-9.987,0-18.854,6.39-22.013,15.865L1.948,155.089
		c-0.017,0.049-0.026,0.099-0.042,0.149C4.933,145.945,13.656,139.223,23.959,139.223z"/>
</g>
<path style="fill:#8CB7E8;" d="M70.367,512H286.94h154.694c12.815,0,23.204-10.389,23.204-23.204V278.448h-23.204H418.43v187.143
	H310.144v-69.612V278.448H286.94h-23.204v94.326H93.572v-94.326H70.367H47.163v117.531v92.817C47.163,501.611,57.553,512,70.367,512
	z M93.572,419.183h170.164v46.408H93.572V419.183z"/>
<g>
</g>
<g>
</g>
<g>
</g>
<g>
</g>
<g>
</g>
<g>
</g>
<g>
</g>
<g>
</g>
<g>
</g>
<g>
</g>
<g>
</g>
<g>
</g>
<g>
</g>
<g>
</g>
<g>
</g>
</svg>
