<?xml version="1.0" encoding="utf-8"?>
<!-- Generator: Adobe Illustrator 24.1.2, SVG Export Plug-In . SVG Version: 6.00 Build 0)  -->
<svg version="1.1" id="Layer_1" xmlns="http://www.w3.org/2000/svg" xmlns:xlink="http://www.w3.org/1999/xlink" x="0px" y="0px"
	 viewBox="0 0 371.6 371.6" style="enable-background:new 0 0 371.6 371.6;" xml:space="preserve">
<style type="text/css">
	.st0{fill:#C4C4C4;}
</style>
<g>
	<path class="st0" d="M62.5,153.1c0-0.5,0-1,0-1.6c0-50.2,40.7-90.8,90.8-90.8c43.2,0,79.4,30.2,88.6,70.6
		c8.6-4.8,18.4-7.5,28.9-7.5c32.8,0,59.3,26.6,59.3,59.3c0,1.3-0.1,2.7-0.1,4c24.3,9,41.7,32.4,41.7,59.9
		c0,35.3-28.6,63.9-63.9,63.9H79.9C35.8,310.9,0,275.2,0,231.1C0,192.9,26.7,161,62.5,153.1z"/>
</g>
</svg>
