<?xml version="1.0" encoding="utf-8"?>
<!-- Generator: Adobe Illustrator 24.1.2, SVG Export Plug-In . SVG Version: 6.00 Build 0)  -->
<svg version="1.1" id="Capa_1" xmlns="http://www.w3.org/2000/svg" xmlns:xlink="http://www.w3.org/1999/xlink" x="0px" y="0px"
	 viewBox="0 0 1200 600" style="enable-background:new 0 0 1200 600;" xml:space="preserve">
<style type="text/css">
	.st0{fill:#FFF2BB;}
	.st1{fill:#FFFEFA;}
	.st2{opacity:0.4;}
	.st3{fill:#FFC847;}
	.st4{fill:#FFFBF3;}
</style>
<g>
	<g>
		<polygon class="st0" points="398,128.6 389,128 383.4,120.8 386.4,142.4 395.1,144.9 392.9,136.1 		"/>
		<polygon class="st1" points="380,129.2 371.4,132.2 378.4,138.1 378.6,147.2 386.4,142.4 383.4,120.8 		"/>
	</g>
</g>
<g>
	<g>
		<polygon class="st0" points="960.3,232.4 946.3,215.6 949.5,193.9 917,235.3 927.1,254.6 938.8,236.1 		"/>
		<polygon class="st1" points="929.2,202.1 909.6,192.4 911.1,214.3 895.8,229.9 917,235.3 949.5,193.9 		"/>
	</g>
</g>
<g>
	<g>
		<polygon class="st0" points="513.3,42.8 500,34.5 497.3,19.1 484.5,54.4 495.7,65.2 499.4,50.1 		"/>
		<polygon class="st1" points="485.4,29.2 469.9,26.9 475.7,41.4 468.9,55.5 484.5,54.4 497.3,19.1 		"/>
	</g>
</g>
<g>
	<g>
		<polygon class="st0" points="824.6,388.6 817.5,385.4 815.2,377.9 811.1,396.2 817.4,400.9 818.3,393.1 		"/>
		<polygon class="st1" points="809.9,383.7 802.1,383.6 806,390.4 803.5,397.8 811.1,396.2 815.2,377.9 		"/>
	</g>
</g>
<g>
	<g>
		<g class="st2">
			<polygon class="st3" points="41.4,385.1 55.1,403.5 57.1,380.6 57.4,403.5 72.4,386.2 59.2,405 81.5,399.8 59.8,407.2 
				80.9,416.1 59,409.3 70.9,429 57.1,410.6 55.2,433.5 54.8,410.5 39.8,427.9 53,409.1 30.7,414.3 52.4,406.9 31.3,398 53.2,404.8 
							"/>
		</g>
		<g>
			<polygon class="st4" points="48.2,395.2 56.2,401.6 64.8,395.8 61.2,405.5 69.3,411.8 59.1,411.4 55.5,421.1 52.7,411.2 
				42.4,410.8 51,405.1 			"/>
		</g>
	</g>
</g>
<g>
	<g>
		<g class="st2">
			<polygon class="st3" points="835.3,520.8 849,539.2 851,516.4 851.3,539.3 866.4,522 853.2,540.7 875.5,535.5 853.8,542.9 
				874.9,551.9 853,545.1 864.8,564.7 851.1,546.4 849.1,569.2 848.8,546.3 833.8,563.6 847,544.9 824.6,550 846.3,542.6 
				825.2,533.7 847.1,540.5 			"/>
		</g>
		<g>
			<polygon class="st4" points="842.1,531 850.2,537.3 858.7,531.6 855.2,541.2 863.3,547.5 853,547.2 849.5,556.8 846.7,546.9 
				836.4,546.6 844.9,540.8 			"/>
		</g>
	</g>
</g>
<g>
	<g>
		<g class="st2">
			<polygon class="st3" points="611.7,338.1 617.4,345.8 618.5,336.1 618.4,345.8 625,338.3 619.2,346.3 628.8,343.9 619.4,347.3 
				628.4,350.8 619,348.3 623.9,356.3 618.2,348.8 617.1,358.4 617.2,348.8 610.6,356.3 616.5,348.1 606.8,350.6 616.2,347.3 
				607.2,343.8 616.6,346.3 			"/>
		</g>
		<g>
			<polygon class="st4" points="614.5,342.3 617.9,344.9 621.6,342.4 620,346.5 623.5,349.1 619,349.1 617.4,353.3 616.3,349 
				611.9,349 615.6,346.5 			"/>
		</g>
	</g>
</g>
<g>
	<g>
		<g class="st2">
			<polygon class="st3" points="249.1,553.3 261,568.9 263.2,548.9 263,568.9 276.8,553.5 264.6,570.1 284.6,565.1 265.1,572.1 
				283.7,579.4 264.4,574 274.5,590.9 262.6,575.1 260.4,595.1 260.6,575.1 246.9,590.5 259,573.9 239,578.9 258.5,572 239.9,564.6 
				259.2,570.1 			"/>
		</g>
		<g>
			<polygon class="st4" points="255,561.8 262,567.3 269.8,562 266.4,570.5 273.5,575.9 264.3,575.8 261,584.3 258.7,575.8 
				249.6,575.6 257.3,570.4 			"/>
		</g>
	</g>
</g>
<g>
	<g>
		<g class="st2">
			<polygon class="st3" points="519.1,459.8 535.1,481.1 538.1,454.1 537.8,481.1 556.4,460.3 540,482.7 567,476 540.7,485.3 
				565.8,495.3 539.7,487.9 553.3,510.7 537.3,489.4 534.3,516.4 534.6,489.4 516,510.2 532.4,487.8 505.4,494.5 531.7,485.2 
				506.6,475.2 532.7,482.6 			"/>
		</g>
		<g>
			<polygon class="st4" points="527,471.5 536.5,478.8 546.9,471.8 542.4,483.2 552,490.5 539.6,490.3 535.1,501.8 532,490.3 
				519.7,490.1 530.1,483.1 			"/>
		</g>
	</g>
</g>
<g>
	<g>
		<g class="st2">
			<polygon class="st3" points="1115.2,41.7 1132.9,65.3 1136.3,35.4 1136,65.3 1156.5,42.2 1138.3,67.1 1168.3,59.7 1139.1,70 
				1167,81.1 1138,72.9 1153.2,98.2 1135.4,74.6 1132.1,104.5 1132.3,74.6 1111.8,97.7 1130,72.8 1100,80.2 1129.2,69.9 
				1101.3,58.9 1130.3,67 			"/>
		</g>
		<g>
			<polygon class="st4" points="1123.9,54.7 1134.5,62.8 1146.1,55 1141.1,67.7 1151.6,75.8 1138,75.6 1133,88.3 1129.5,75.5 
				1115.8,75.3 1127.4,67.6 			"/>
		</g>
	</g>
</g>
<g>
	<g>
		<polygon class="st0" points="1160.9,429.8 1152.3,425.9 1149.5,416.9 1144.6,439 1152.2,444.6 1153.2,435.2 		"/>
		<polygon class="st1" points="1143.1,423.8 1133.7,423.7 1138.4,431.9 1135.4,440.8 1144.6,439 1149.5,416.9 		"/>
	</g>
</g>
<g>
	<g>
		<g class="st2">
			<polygon class="st3" points="16,256.8 29.7,275.2 31.7,252.4 32,275.3 47,258 33.8,276.7 56.2,271.5 34.5,278.9 55.5,287.9 
				33.7,281.1 45.5,300.7 31.7,282.4 29.7,305.2 29.5,282.3 14.5,299.6 27.7,280.9 5.2,286 27,278.6 5.8,269.7 27.7,276.5 			"/>
		</g>
		<g>
			<polygon class="st4" points="22.7,267 30.8,273.3 39.3,267.6 35.8,277.2 44,283.5 33.7,283.2 30.2,292.8 27.3,282.9 17,282.6 
				25.5,276.8 			"/>
		</g>
	</g>
</g>
<g>
	<g>
		<g class="st2">
			<polygon class="st3" points="818.8,69.5 830.7,85.2 832.8,65.2 832.7,85.2 846.4,69.8 834.3,86.4 854.3,81.4 834.8,88.4 
				853.3,95.7 834,90.3 844.2,107.2 832.3,91.4 830,111.4 830.3,91.4 816.5,106.8 828.7,90.2 808.7,95.2 828.2,88.3 809.5,80.9 
				828.8,86.4 			"/>
		</g>
		<g>
			<polygon class="st4" points="824.7,78.1 831.7,83.5 839.4,78.3 836,86.8 843.2,92.2 833.9,92.1 830.7,100.6 828.3,92 819.3,91.9 
				826.9,86.7 			"/>
		</g>
	</g>
</g>
<g>
	<g>
		<g class="st2">
			<polygon class="st3" points="959.8,338.7 971.7,354.4 973.9,334.4 973.7,354.4 987.5,339 975.3,355.6 995.3,350.6 975.8,357.6 
				994.4,364.9 975.1,359.5 985.2,376.4 973.3,360.6 971.1,380.6 971.3,360.6 957.6,376 969.7,359.4 949.7,364.4 969.2,357.5 
				950.6,350.1 969.9,355.6 			"/>
		</g>
		<g>
			<polygon class="st4" points="965.7,347.3 972.7,352.7 980.5,347.5 977.1,356 984.2,361.4 975,361.3 971.7,369.8 969.4,361.2 
				960.3,361.1 968,355.9 			"/>
		</g>
	</g>
</g>
</svg>
